<?xml version="1.0" standalone="no"?>
<!DOCTYPE svg PUBLIC "-//W3C//DTD SVG 20010904//EN"
 "http://www.w3.org/TR/2001/REC-SVG-20010904/DTD/svg10.dtd">
<svg version="1.0" xmlns="http://www.w3.org/2000/svg"
 width="474.000000pt" height="379.000000pt" viewBox="0 0 474.000000 379.000000"
 preserveAspectRatio="xMidYMid meet">

<g transform="translate(0.000000,379.000000) scale(0.100000,-0.100000)"
fill="#000000" stroke="none">
<path d="M2691 3575 c-56 -53 -93 -58 -138 -21 -50 41 -74 48 -195 54 -232 10
-387 -37 -495 -151 -43 -45 -103 -140 -103 -163 0 -3 24 7 53 24 121 68 246
95 309 69 44 -18 64 -48 87 -124 l17 -58 131 -3 131 -3 7 43 c25 148 119 201
209 118 37 -34 50 -40 89 -40 79 0 77 -4 77 144 0 89 -4 136 -12 144 -7 7 -36
12 -65 12 -50 0 -57 -3 -102 -45z m104 6 c19 -8 19 -8 -5 -16 -14 -4 -44 -25
-67 -46 -28 -26 -52 -39 -70 -39 l-28 0 28 18 c15 11 43 35 61 55 34 38 46 42
81 28z m-348 -20 c13 -8 -16 -11 -112 -11 -194 -1 -323 -35 -419 -112 -29 -24
-36 -26 -27 -10 27 50 131 115 226 139 59 15 303 11 332 -6z m-257 -140 c34
-23 70 -97 70 -141 -1 -34 -2 -34 -35 31 -34 66 -83 119 -111 119 -8 0 -14 5
-14 11 0 15 59 2 90 -20z m527 7 c42 -39 26 -48 -32 -16 -30 16 -55 31 -55 34
0 14 67 1 87 -18z"/>
<path d="M1087 3573 c-16 -15 -5 -51 23 -78 17 -16 30 -37 30 -46 0 -22 108
-151 120 -144 5 3 82 -89 171 -205 90 -115 166 -210 169 -210 3 0 23 16 45 34
l40 34 -26 29 c-14 15 -94 103 -178 195 -84 92 -150 172 -147 177 7 11 -98
133 -123 142 -9 4 -31 23 -49 43 -29 33 -59 45 -75 29z m87 -78 c17 -21 26
-36 19 -32 -6 4 -31 31 -54 60 -24 28 -33 43 -20 32 13 -11 37 -38 55 -60z
m413 -506 c-29 -26 -33 -26 -45 -11 -26 33 -33 56 -8 27 l26 -30 22 22 22 23
-24 27 c-25 28 -24 28 7 -1 l33 -30 -33 -27z"/>
<path d="M3218 3370 c-79 -24 -128 -85 -128 -161 0 -61 -25 -169 -48 -215 -11
-22 -59 -90 -106 -152 l-87 -112 40 0 c23 0 64 -9 93 -20 28 -11 52 -19 53
-17 1 1 34 46 73 99 80 108 129 150 198 167 105 27 160 78 190 177 24 82 17
84 -67 14 -69 -58 -102 -63 -147 -25 -33 27 -62 81 -62 114 0 14 22 38 65 72
36 28 65 55 65 60 0 11 -95 10 -132 -1z m-50 -293 c14 -21 47 -52 74 -69 26
-17 48 -33 48 -35 0 -2 -17 4 -37 12 -53 22 -101 71 -129 130 -29 61 -31 96
-3 40 12 -22 32 -57 47 -78z"/>
<path d="M1012 3240 c-16 -16 -32 -26 -36 -23 -3 4 -6 2 -6 -4 0 -6 -34 -45
-75 -87 -41 -42 -72 -76 -69 -76 3 0 -8 -14 -25 -31 -17 -17 -31 -35 -31 -40
0 -6 -4 -8 -8 -5 -4 2 -8 -4 -9 -14 -1 -13 42 -49 153 -125 l155 -107 32 28
32 29 -27 -31 c-16 -16 -28 -33 -28 -37 0 -7 46 -50 94 -88 21 -17 30 -18 75
-8 28 6 53 14 56 19 3 5 -6 20 -20 34 -32 32 -32 70 0 101 31 32 56 31 94 -1
l31 -26 10 27 c5 14 10 43 10 64 0 33 -7 45 -56 91 l-56 53 -90 -94 -90 -94
81 91 c45 50 81 94 81 98 0 7 -239 286 -245 286 -2 0 -17 -13 -33 -30z"/>
<path d="M3735 3241 c-28 -16 -106 -85 -175 -153 -121 -121 -241 -215 -259
-203 -5 3 -16 2 -24 -1 -17 -6 -67 -77 -67 -95 0 -6 -12 -20 -26 -31 -14 -11
-23 -27 -20 -34 4 -10 -33 -43 -109 -99 -63 -47 -115 -87 -115 -90 0 -13 25 2
124 75 60 45 113 79 118 78 12 -4 44 -56 38 -61 -3 -2 -38 -27 -79 -55 -41
-29 -68 -52 -61 -52 8 0 46 22 85 50 l72 49 52 -72 51 -72 -72 -3 c-63 -3 -70
-5 -51 -15 17 -9 -276 -11 -1303 -9 l-1324 2 0 -175 0 -175 1780 0 1780 0 0
175 0 175 -387 0 -388 1 -62 87 c-61 85 -62 87 -42 101 12 8 49 24 82 35 49
17 63 26 67 46 8 36 125 122 277 205 199 107 268 190 232 276 -16 39 -63 69
-109 69 -20 0 -56 -12 -85 -29z m-40 -95 c33 -26 99 -138 92 -159 -2 -6 -15
14 -29 44 -14 31 -45 75 -69 97 -47 46 -44 56 6 18z m-23 -43 c41 -43 82 -116
76 -135 -3 -7 -14 8 -25 34 -12 25 -40 67 -63 92 -51 55 -40 62 12 9z m-280
-306 c20 -38 0 -25 -31 21 -31 43 -31 45 -6 22 15 -14 31 -33 37 -43z m-121
-84 l22 -36 -24 -17 c-28 -22 -28 -22 -64 31 l-29 41 24 18 c28 21 38 16 71
-37z m-1063 -298 c46 -16 125 -19 157 -5 12 4 -5 6 -41 3 -37 -3 -69 -1 -80 6
-15 9 4 11 84 9 56 -1 97 -5 90 -9 -7 -4 -9 -11 -6 -15 4 -4 19 1 32 10 23 14
104 16 861 16 550 0 835 -3 835 -10 0 -6 -77 -11 -207 -12 l-208 -3 208 -2
c156 -3 208 -6 205 -15 -3 -9 -42 -12 -139 -10 -74 1 -159 -2 -189 -7 l-55 -9
86 -1 c47 0 133 -4 191 -7 l105 -7 1 -28 c1 -26 -3 -29 -31 -31 l-32 -1 31 -4
32 -4 1 -65 1 -64 -553 -2 -552 -3 553 -2 c303 -2 552 -7 552 -12 0 -4 -75
-11 -167 -14 -198 -8 -682 -6 -573 2 41 3 -190 6 -515 6 -324 0 -507 -2 -405
-5 102 -3 -134 -3 -525 0 -854 6 -803 5 -995 1 -85 -1 -202 -1 -260 0 -99 3
-96 4 55 9 l160 6 -157 2 -158 2 0 45 c0 36 4 45 18 46 16 1 16 2 -1 6 -10 2
-16 12 -15 21 3 14 21 18 123 22 l120 6 -122 2 c-102 2 -123 5 -123 17 0 8 8
16 18 16 16 1 16 2 -1 6 -10 3 -17 11 -15 19 3 13 92 14 648 13 355 -1 677 0
715 2 39 2 97 3 130 3 389 -7 1395 -7 1395 -1 0 4 42 5 93 1 50 -4 89 -3 85 1
-8 9 -1584 22 -1693 13 -102 -8 -1375 3 -1375 12 0 6 42 11 103 12 l102 2
-102 3 c-57 2 -103 7 -103 11 0 4 352 8 783 9 661 2 789 0 825 -12z m875 -52
c-7 -2 -21 -2 -30 0 -10 3 -4 5 12 5 17 0 24 -2 18 -5z"/>
<path d="M1893 2413 c9 -2 23 -2 30 0 6 3 -1 5 -18 5 -16 0 -22 -2 -12 -5z"/>
<path d="M2055 2410 c-23 -6 -14 -8 39 -9 38 0 67 1 65 3 -10 9 -77 13 -104 6z"/>
<path d="M2500 2410 c-14 -4 18 -5 70 -2 52 2 97 6 99 8 8 7 -144 2 -169 -6z"/>
<path d="M1008 2403 c28 -2 76 -2 105 0 28 2 5 3 -53 3 -58 0 -81 -1 -52 -3z"/>
<path d="M1358 2403 c45 -2 119 -2 165 0 45 1 8 3 -83 3 -91 0 -128 -2 -82 -3z"/>
<path d="M1618 2403 c7 -3 16 -2 19 1 4 3 -2 6 -13 5 -11 0 -14 -3 -6 -6z"/>
<path d="M1687 2403 c18 -2 50 -2 70 0 21 2 7 4 -32 4 -38 0 -55 -2 -38 -4z"/>
<path d="M2913 2403 c108 -2 286 -2 395 0 108 1 19 2 -198 2 -217 0 -306 -1
-197 -2z"/>
<path d="M1965 2390 c-25 -11 1 -11 35 0 20 6 21 8 5 8 -11 0 -29 -3 -40 -8z"/>
<path d="M1705 2330 l-430 -5 515 -2 c294 -1 506 2 495 7 -11 5 -49 8 -85 7
-36 -1 -258 -4 -495 -7z"/>
<path d="M2357 2333 c18 -2 50 -2 70 0 21 2 7 4 -32 4 -38 0 -55 -2 -38 -4z"/>
<path d="M2590 2330 c126 -10 282 -12 296 -2 7 4 -79 8 -190 8 -162 1 -183 0
-106 -6z"/>
<path d="M958 2323 c39 -2 105 -2 145 0 39 1 7 3 -73 3 -80 0 -112 -2 -72 -3z"/>
<path d="M3193 2323 c20 -2 54 -2 75 0 20 2 3 4 -38 4 -41 0 -58 -2 -37 -4z"/>
<path d="M3518 2323 c23 -2 59 -2 80 0 20 2 1 4 -43 4 -44 0 -61 -2 -37 -4z"/>
<path d="M3768 2323 c68 -2 176 -2 240 0 64 1 9 3 -123 3 -132 0 -185 -2 -117
-3z"/>
<path d="M3708 2293 c17 -2 47 -2 65 0 17 2 3 4 -33 4 -36 0 -50 -2 -32 -4z"/>
<path d="M1443 2283 c136 -2 358 -2 495 0 136 1 24 2 -248 2 -272 0 -384 -1
-247 -2z"/>
<path d="M2723 2283 c103 -2 271 -2 375 0 103 1 18 2 -188 2 -206 0 -291 -1
-187 -2z"/>
<path d="M3488 2283 c23 -2 59 -2 80 0 20 2 1 4 -43 4 -44 0 -61 -2 -37 -4z"/>
<path d="M3888 2283 c12 -2 32 -2 45 0 12 2 2 4 -23 4 -25 0 -35 -2 -22 -4z"/>
<path d="M780 2271 c-116 -5 -84 -7 158 -8 167 -1 302 0 300 1 -8 8 -326 12
-458 7z"/>
<path d="M3993 2273 c15 -2 37 -2 50 0 12 2 0 4 -28 4 -27 0 -38 -2 -22 -4z"/>
<path d="M1680 2260 l-85 -6 90 -1 c50 0 104 3 120 7 l30 8 -35 -1 c-19 0 -73
-4 -120 -7z"/>
<path d="M3163 2263 c54 -2 139 -2 190 0 51 1 7 3 -98 3 -104 0 -146 -2 -92
-3z"/>
<path d="M3643 2263 c48 -2 125 -2 170 0 45 1 6 3 -88 3 -93 0 -130 -2 -82 -3z"/>
<path d="M1933 2253 c42 -2 112 -2 155 0 42 1 7 3 -78 3 -85 0 -120 -2 -77 -3z"/>
<path d="M3483 2253 c15 -2 37 -2 50 0 12 2 0 4 -28 4 -27 0 -38 -2 -22 -4z"/>
<path d="M873 2233 c59 -2 155 -2 215 0 59 1 10 3 -108 3 -118 0 -167 -2 -107
-3z"/>
<path d="M2433 2233 c186 -2 488 -2 670 0 183 1 31 2 -338 2 -368 0 -518 -1
-332 -2z"/>
<path d="M3708 2233 c39 -2 105 -2 145 0 39 1 7 3 -73 3 -80 0 -112 -2 -72 -3z"/>
<path d="M1543 2223 c15 -2 37 -2 50 0 12 2 0 4 -28 4 -27 0 -38 -2 -22 -4z"/>
<path d="M1693 2223 c9 -2 23 -2 30 0 6 3 -1 5 -18 5 -16 0 -22 -2 -12 -5z"/>
<path d="M1823 2203 c9 -2 25 -2 35 0 9 3 1 5 -18 5 -19 0 -27 -2 -17 -5z"/>
<path d="M3693 2203 c26 -2 67 -2 90 0 23 2 2 3 -48 3 -49 0 -68 -1 -42 -3z"/>
<path d="M2588 2193 c7 -3 16 -2 19 1 4 3 -2 6 -13 5 -11 0 -14 -3 -6 -6z"/>
<path d="M3418 2193 c23 -2 59 -2 80 0 20 2 1 4 -43 4 -44 0 -61 -2 -37 -4z"/>
<path d="M2333 2143 c20 -2 54 -2 75 0 20 2 3 4 -38 4 -41 0 -58 -2 -37 -4z"/>
<path d="M2618 2143 c12 -2 30 -2 40 0 9 3 -1 5 -23 4 -22 0 -30 -2 -17 -4z"/>
<path d="M2743 2143 c15 -2 39 -2 55 0 15 2 2 4 -28 4 -30 0 -43 -2 -27 -4z"/>
<path d="M1348 2133 c29 -2 74 -2 100 0 26 2 2 3 -53 3 -55 0 -76 -1 -47 -3z"/>
<path d="M1888 2133 c45 -2 119 -2 165 0 45 1 8 3 -83 3 -91 0 -128 -2 -82 -3z"/>
<path d="M3738 2123 c34 -2 90 -2 125 0 34 2 6 3 -63 3 -69 0 -97 -1 -62 -3z"/>
<path d="M2914 3253 l-51 -4 -67 -130 c-38 -72 -75 -133 -83 -136 -15 -6 -83
-106 -83 -123 0 -5 -11 -12 -24 -16 -13 -3 -45 -28 -72 -55 -53 -54 -78 -61
-94 -26 -11 21 -10 21 4 3 15 -18 16 -14 17 62 1 101 1 109 0 232 l-1 100
-100 0 -101 0 2 -133 c0 -74 5 -153 9 -178 11 -62 -16 -115 -64 -125 -42 -7
-56 0 -56 29 0 17 -2 19 -9 8 -15 -24 -37 31 -22 55 6 11 11 14 11 8 0 -6 9
-21 20 -34 11 -13 20 -31 20 -42 0 -19 16 -23 38 -9 12 7 11 13 -2 38 -8 17
-13 41 -10 54 4 21 3 21 -4 4 -9 -19 -9 -19 -17 4 -4 14 -3 26 4 30 13 9 3 50
-27 105 -12 22 -18 44 -15 50 4 6 10 0 15 -14 5 -16 6 -11 2 15 -3 22 -17 64
-30 93 -25 55 -32 89 -13 62 8 -11 9 -8 4 15 -9 43 -41 59 -63 32 -14 -17 -1
-75 27 -120 22 -37 28 -73 10 -61 -8 4 -9 -4 -4 -27 11 -52 23 -79 35 -79 5 0
10 -7 10 -15 0 -7 8 -18 17 -24 15 -8 15 -13 5 -36 -7 -15 -16 -25 -19 -21 -4
3 -1 12 5 18 27 27 9 28 -39 2 -77 -42 -105 -81 -114 -153 -6 -51 -11 -64 -35
-81 -35 -25 -47 -25 -89 1 -33 20 -34 21 -28 77 l6 57 -45 -50 c-57 -64 -69
-106 -52 -185 l12 -60 58 0 c52 0 64 4 125 46 136 93 267 134 427 134 171 0
298 -38 433 -130 l74 -51 157 3 157 3 -37 18 c-32 15 -46 16 -103 7 -55 -9
-69 -8 -90 6 -20 13 -25 25 -25 58 0 57 16 76 75 85 l50 8 -55 26 c-89 43
-108 43 -187 4 l-70 -36 -31 20 c-18 10 -32 27 -32 36 0 10 -3 28 -6 41 -6 19
-3 22 25 22 35 0 38 -10 14 -51 -16 -26 -16 -31 -3 -39 25 -16 36 -11 53 25 9
19 36 56 59 81 38 41 40 46 26 61 -14 14 -11 26 41 132 31 64 75 150 96 191
22 41 41 78 43 83 4 7 -12 7 -114 0z m80 -38 c-13 -20 -24 -25 -60 -25 -23 0
-45 -3 -47 -7 -3 -5 15 -6 39 -4 48 3 52 -3 28 -37 -12 -17 -25 -22 -60 -22
-37 0 -44 3 -44 19 0 11 -6 22 -12 24 -7 3 -2 6 12 6 17 1 21 4 12 9 -9 7 -10
15 -3 35 10 26 14 27 81 27 l70 0 -16 -25z m-64 -115 c0 -5 -6 -7 -13 -4 -8 3
-18 -6 -25 -21 -9 -20 -19 -25 -47 -25 -39 0 -39 0 -23 35 10 22 17 25 60 25
26 0 48 -4 48 -10z m-60 -68 c0 -25 -34 -52 -66 -52 -38 0 -41 6 -18 38 11 15
25 22 50 22 19 0 34 -3 34 -8z m-44 -78 c-3 -9 -6 -20 -6 -25 0 -5 -20 -9 -45
-9 l-45 0 16 25 c12 19 25 25 51 25 28 0 34 -3 29 -16z m-431 -58 c-46 -16
-77 -33 -92 -52 -13 -16 -23 -24 -23 -18 0 29 110 94 160 94 14 0 -5 -11 -45
-24z m405 9 c0 -6 -20 -56 -39 -92 -13 -28 -21 -33 -50 -33 -40 0 -40 1 17 33
l43 24 -40 7 -39 6 14 30 c13 26 21 30 55 30 21 0 39 -2 39 -5z m-373 -102
c-4 -17 -4 -17 -12 0 -4 9 -4 25 0 35 8 16 8 16 12 0 3 -10 3 -26 0 -35z"/>
<path d="M2072 3080 c0 -14 2 -19 5 -12 2 6 2 18 0 25 -3 6 -5 1 -5 -13z"/>
<path d="M1787 3011 c-89 -45 -267 -212 -267 -249 0 -14 203 -262 215 -262 2
0 0 14 -5 30 -5 17 -40 65 -79 108 -39 42 -71 84 -71 93 0 19 145 161 213 208
57 39 53 41 144 -75 45 -57 59 -70 66 -58 6 11 -10 37 -61 97 -72 84 -111 127
-115 127 -2 0 -20 -9 -40 -19z"/>
<path d="M2111 2904 c0 -11 3 -14 6 -6 3 7 2 16 -1 19 -3 4 -6 -2 -5 -13z"/>
<path d="M1284 2765 c-13 -13 -24 -31 -24 -41 0 -20 50 -67 110 -105 29 -18
57 -48 80 -86 30 -48 40 -59 67 -61 28 -3 32 0 48 42 19 51 36 52 34 3 l-1
-32 -7 30 -6 30 -11 -37 -11 -36 64 -1 64 -1 -33 41 c-36 46 -94 89 -149 112
-20 8 -49 32 -65 53 -43 57 -90 101 -114 107 -15 4 -30 -2 -46 -18z"/>
<path d="M2222 2545 c-35 -8 -92 -27 -125 -44 l-62 -29 335 0 335 0 -61 29
c-117 56 -285 74 -422 44z"/>
<path d="M590 1905 l0 -175 1780 0 1780 0 0 175 0 175 -1780 0 -1780 0 0 -175z
m1908 151 c7 -4 12 -2 12 4 0 13 52 9 62 -4 10 -15 50 -15 44 0 -3 9 15 12 74
11 44 0 77 -4 75 -7 -3 -4 12 -4 33 -1 20 3 330 5 689 3 l652 -3 -1 -49 0 -50
-151 -2 -152 -2 153 -3 c126 -3 152 -6 152 -18 0 -11 -13 -16 -42 -17 l-43 -1
43 -4 c39 -4 42 -6 42 -34 0 -16 -5 -29 -12 -29 -9 0 -8 -4 2 -10 10 -6 -50
-10 -180 -12 l-195 -3 192 -2 193 -3 -2 -39 -1 -39 -1249 0 c-687 0 -1246 3
-1243 7 4 3 214 8 468 11 l462 6 -450 2 c-308 1 -463 -2 -490 -10 -54 -15
-112 -15 -127 1 -11 10 -7 11 17 6 29 -7 28 -6 -7 14 -37 20 -67 30 -39 12 14
-9 27 -51 16 -51 -3 0 -14 9 -25 20 -11 11 -32 23 -47 26 -16 4 -31 12 -35 17
-4 7 -14 7 -30 0 -21 -10 -20 -11 20 -17 23 -5 39 -12 36 -18 -3 -5 0 -9 7 -7
26 3 39 -1 39 -12 0 -8 -5 -8 -15 1 -8 7 -15 8 -15 2 0 -5 -11 -9 -25 -9 -14
0 -25 3 -25 8 0 5 5 9 12 9 6 0 9 3 5 6 -3 4 -25 -1 -48 -10 -29 -12 -45 -14
-53 -6 -7 5 -16 7 -20 3 -9 -9 -642 -17 -664 -8 -14 5 -14 7 -2 15 11 7 12 10
2 10 -9 0 -12 11 -10 33 l3 32 85 6 85 5 -87 2 -88 2 0 30 c0 21 5 30 18 31
14 1 14 2 1 6 -12 3 -15 18 -15 73 l0 70 344 0 c259 0 341 -3 336 -12 -5 -8
-2 -9 12 -2 32 15 1178 25 1202 10z"/>
<path d="M2387 2049 c7 -7 15 -10 18 -7 3 3 -2 9 -12 12 -14 6 -15 5 -6 -5z"/>
<path d="M1088 2043 c7 -3 16 -2 19 1 4 3 -2 6 -13 5 -11 0 -14 -3 -6 -6z"/>
<path d="M1128 2043 c7 -3 16 -2 19 1 4 3 -2 6 -13 5 -11 0 -14 -3 -6 -6z"/>
<path d="M2023 2043 c26 -2 67 -2 90 0 23 2 2 3 -48 3 -49 0 -68 -1 -42 -3z"/>
<path d="M2514 2038 c-3 -4 2 -8 10 -8 8 0 17 4 20 8 3 5 -2 9 -10 9 -8 0 -17
-4 -20 -9z"/>
<path d="M3628 2043 c17 -2 47 -2 65 0 17 2 3 4 -33 4 -36 0 -50 -2 -32 -4z"/>
<path d="M957 2033 c18 -2 50 -2 70 0 21 2 7 4 -32 4 -38 0 -55 -2 -38 -4z"/>
<path d="M2888 2033 c7 -3 16 -2 19 1 4 3 -2 6 -13 5 -11 0 -14 -3 -6 -6z"/>
<path d="M2392 2018 c7 -4 40 -7 73 -7 73 1 62 6 -23 11 -34 3 -57 1 -50 -4z"/>
<path d="M3020 2020 c-20 -6 -21 -8 -5 -8 11 0 31 4 45 8 20 6 21 8 5 8 -11 0
-31 -4 -45 -8z"/>
<path d="M2578 2013 c23 -2 59 -2 80 0 20 2 1 4 -43 4 -44 0 -61 -2 -37 -4z"/>
<path d="M3228 2013 c45 -2 119 -2 165 0 45 1 8 3 -83 3 -91 0 -128 -2 -82 -3z"/>
<path d="M903 2003 c37 -2 96 -2 130 0 34 2 4 3 -68 3 -71 0 -99 -1 -62 -3z"/>
<path d="M1483 2003 c87 -2 227 -2 310 0 84 1 13 3 -158 3 -170 0 -239 -2
-152 -3z"/>
<path d="M2057 2003 c18 -2 50 -2 70 0 21 2 7 4 -32 4 -38 0 -55 -2 -38 -4z"/>
<path d="M2258 2003 c23 -2 59 -2 80 0 20 2 1 4 -43 4 -44 0 -61 -2 -37 -4z"/>
<path d="M3663 2003 c43 -2 110 -2 150 0 40 1 5 3 -78 3 -82 0 -115 -2 -72 -3z"/>
<path d="M990 1980 l-55 -7 65 0 c36 -1 76 3 90 7 22 7 21 8 -10 7 -19 0 -60
-3 -90 -7z"/>
<path d="M1168 1983 c28 -2 76 -2 105 0 28 2 5 3 -53 3 -58 0 -81 -1 -52 -3z"/>
<path d="M2668 1983 c94 -2 250 -2 345 0 94 1 17 3 -173 3 -190 0 -267 -2
-172 -3z"/>
<path d="M3323 1983 c9 -2 23 -2 30 0 6 3 -1 5 -18 5 -16 0 -22 -2 -12 -5z"/>
<path d="M3393 1983 c9 -2 25 -2 35 0 9 3 1 5 -18 5 -19 0 -27 -2 -17 -5z"/>
<path d="M1378 1973 c29 -2 74 -2 100 0 26 2 2 3 -53 3 -55 0 -76 -1 -47 -3z"/>
<path d="M3678 1971 c45 -4 119 -4 165 0 63 4 43 6 -83 6 -126 0 -146 -2 -82
-6z"/>
<path d="M668 1963 c29 -2 74 -2 100 0 26 2 2 3 -53 3 -55 0 -76 -1 -47 -3z"/>
<path d="M843 1953 c9 -2 23 -2 30 0 6 3 -1 5 -18 5 -16 0 -22 -2 -12 -5z"/>
<path d="M1048 1953 c6 -2 18 -2 25 0 6 3 1 5 -13 5 -14 0 -19 -2 -12 -5z"/>
<path d="M1573 1953 c114 -2 300 -2 415 0 114 1 20 2 -208 2 -228 0 -322 -1
-207 -2z"/>
<path d="M2593 1953 c9 -2 25 -2 35 0 9 3 1 5 -18 5 -19 0 -27 -2 -17 -5z"/>
<path d="M2728 1953 c7 -3 16 -2 19 1 4 3 -2 6 -13 5 -11 0 -14 -3 -6 -6z"/>
<path d="M3043 1953 c108 -2 286 -2 395 0 108 1 19 2 -198 2 -217 0 -306 -1
-197 -2z"/>
<path d="M983 1943 c9 -2 25 -2 35 0 9 3 1 5 -18 5 -19 0 -27 -2 -17 -5z"/>
<path d="M902 1913 c70 -2 187 -2 260 0 73 1 16 3 -127 3 -143 0 -203 -2 -133
-3z"/>
<path d="M1423 1913 c43 -2 110 -2 150 0 40 1 5 3 -78 3 -82 0 -115 -2 -72 -3z"/>
<path d="M1990 1910 c85 -4 207 -7 270 -7 l115 0 -140 8 c-77 3 -198 6 -270 6
l-130 -1 155 -6z"/>
<path d="M2663 1913 c153 -2 401 -2 550 0 150 1 25 2 -278 2 -302 0 -425 -1
-272 -2z"/>
<path d="M3613 1913 c53 -2 141 -2 195 0 53 1 9 3 -98 3 -107 0 -151 -2 -97
-3z"/>
<path d="M1083 1843 c26 -2 67 -2 90 0 23 2 2 3 -48 3 -49 0 -68 -1 -42 -3z"/>
<path d="M1438 1843 c45 -2 119 -2 165 0 45 1 8 3 -83 3 -91 0 -128 -2 -82 -3z"/>
<path d="M1948 1843 c28 -2 76 -2 105 0 28 2 5 3 -53 3 -58 0 -81 -1 -52 -3z"/>
<path d="M2918 1843 c7 -3 16 -2 19 1 4 3 -2 6 -13 5 -11 0 -14 -3 -6 -6z"/>
<path d="M2973 1843 c9 -2 25 -2 35 0 9 3 1 5 -18 5 -19 0 -27 -2 -17 -5z"/>
<path d="M3068 1843 c6 -2 18 -2 25 0 6 3 1 5 -13 5 -14 0 -19 -2 -12 -5z"/>
<path d="M3688 1843 c29 -2 74 -2 100 0 26 2 2 3 -53 3 -55 0 -76 -1 -47 -3z"/>
<path d="M3385 1830 c-41 -5 -9 -7 100 -7 109 -1 147 2 120 8 -45 9 -132 9
-220 -1z"/>
<path d="M1008 1823 c12 -2 32 -2 45 0 12 2 2 4 -23 4 -25 0 -35 -2 -22 -4z"/>
<path d="M1145 1820 c-12 -5 32 -6 105 -4 68 3 126 7 129 9 8 9 -214 4 -234
-5z"/>
<path d="M1518 1823 c45 -2 119 -2 165 0 45 1 8 3 -83 3 -91 0 -128 -2 -82 -3z"/>
<path d="M1988 1823 c123 -2 321 -2 440 0 119 1 19 2 -223 2 -242 0 -340 -1
-217 -2z"/>
<path d="M2138 1803 c7 -3 16 -2 19 1 4 3 -2 6 -13 5 -11 0 -14 -3 -6 -6z"/>
<path d="M1294 1789 c-3 -6 -1 -16 5 -22 8 -8 11 -5 11 11 0 24 -5 28 -16 11z"/>
<path d="M2893 1793 c9 -2 23 -2 30 0 6 3 -1 5 -18 5 -16 0 -22 -2 -12 -5z"/>
<path d="M935 1770 l-60 -7 60 0 c33 -1 85 2 115 7 l55 7 -55 0 c-30 0 -82 -3
-115 -7z"/>
<path d="M2628 1773 c6 -2 18 -2 25 0 6 3 1 5 -13 5 -14 0 -19 -2 -12 -5z"/>
<path d="M3243 1773 c37 -2 96 -2 130 0 34 2 4 3 -68 3 -71 0 -99 -1 -62 -3z"/>
<path d="M3653 1763 c48 -2 125 -2 170 0 45 1 6 3 -88 3 -93 0 -130 -2 -82 -3z"/>
<path d="M590 1535 l0 -175 1780 0 1780 0 0 175 0 175 -1780 0 -1780 0 0 -175z
m888 160 c-3 -3 -32 -9 -64 -13 -42 -6 -9 -8 118 -7 97 0 175 1 174 2 -1 2
-20 7 -42 12 -24 6 426 9 1219 10 823 1 1257 -2 1257 -9 0 -6 -288 -10 -827
-9 -456 0 -992 0 -1193 -2 l-365 -2 270 -8 c149 -5 285 -6 303 -3 17 3 355 5
750 5 1032 1 1062 0 1062 -11 0 -9 -1495 -16 -2810 -12 l-215 0 150 -10 c164
-10 1136 -14 1495 -6 124 3 187 3 140 -1 -47 -4 213 -8 578 -9 580 -2 662 -4
662 -17 0 -13 -184 -15 -1586 -15 -873 1 -1589 -2 -1593 -5 -3 -4 264 -6 594
-5 330 1 1046 1 1591 1 l991 -1 0 -42 0 -43 -846 0 c-527 1 -791 -2 -701 -7
80 -5 299 -5 487 -2 385 7 1063 -4 1063 -17 0 -5 -62 -10 -137 -11 l-138 -2
136 -3 136 -4 1 -24 0 -25 -177 -2 -176 -2 180 -6 c99 -3 176 -7 170 -8 -14
-3 -1148 -3 -1160 0 -5 1 87 5 205 8 155 4 91 6 -230 6 -315 0 -380 -1 -223
-5 122 -3 224 -8 226 -11 3 -3 -333 -4 -746 -3 -414 2 -943 3 -1177 3 -419 0
-426 0 -427 20 -2 17 5 20 50 22 l52 2 -52 3 c-38 3 -53 8 -53 19 0 11 18 14
83 16 l82 2 -85 6 c-78 6 -81 7 -30 10 30 2 98 3 150 2 52 -1 124 2 160 6 47
6 6 8 -145 8 l-210 -1 -2 43 -3 42 128 2 127 2 -128 3 c-113 3 -128 6 -125 20
3 14 20 16 128 16 99 0 109 2 50 6 l-75 5 90 6 c85 6 82 6 -52 8 l-143 2 2 25
2 25 440 0 c242 0 437 -2 434 -5z m205 -62 c-13 -2 -33 -2 -45 0 -13 2 -3 4
22 4 25 0 35 -2 23 -4z m1950 0 c-111 -2 -295 -2 -410 0 -114 1 -23 2 202 2
226 0 319 -1 208 -2z m435 0 c-43 -2 -113 -2 -155 0 -43 1 -8 3 77 3 85 0 120
-2 78 -3z"/>
<path d="M1058 1673 c46 -2 118 -2 160 0 42 1 5 3 -83 3 -88 0 -123 -2 -77 -3z"/>
<path d="M1168 1623 c23 -2 59 -2 80 0 20 2 1 4 -43 4 -44 0 -61 -2 -37 -4z"/>
<path d="M778 1543 c7 -3 16 -2 19 1 4 3 -2 6 -13 5 -11 0 -14 -3 -6 -6z"/>
<path d="M828 1543 c12 -2 32 -2 45 0 12 2 2 4 -23 4 -25 0 -35 -2 -22 -4z"/>
<path d="M1098 1543 c6 -2 18 -2 25 0 6 3 1 5 -13 5 -14 0 -19 -2 -12 -5z"/>
<path d="M1258 1543 c12 -2 32 -2 45 0 12 2 2 4 -23 4 -25 0 -35 -2 -22 -4z"/>
<path d="M1418 1543 c7 -3 16 -2 19 1 4 3 -2 6 -13 5 -11 0 -14 -3 -6 -6z"/>
<path d="M1553 1543 c9 -2 25 -2 35 0 9 3 1 5 -18 5 -19 0 -27 -2 -17 -5z"/>
<path d="M1753 1543 c82 -2 212 -2 290 0 78 1 12 3 -148 3 -159 0 -223 -2
-142 -3z"/>
<path d="M3168 1543 c178 -2 466 -2 640 0 174 1 29 2 -323 2 -352 0 -495 -1
-317 -2z"/>
<path d="M1168 1533 c12 -2 30 -2 40 0 9 3 -1 5 -23 4 -22 0 -30 -2 -17 -4z"/>
<path d="M1718 1523 c23 -2 61 -2 85 0 23 2 4 4 -43 4 -47 0 -66 -2 -42 -4z"/>
<path d="M3848 1523 c50 -2 134 -2 185 0 50 1 9 3 -93 3 -102 0 -143 -2 -92
-3z"/>
<path d="M2318 1513 c7 -3 16 -2 19 1 4 3 -2 6 -13 5 -11 0 -14 -3 -6 -6z"/>
<path d="M1053 1493 c9 -2 25 -2 35 0 9 3 1 5 -18 5 -19 0 -27 -2 -17 -5z"/>
<path d="M1205 1491 c-75 -9 757 -11 935 -3 109 6 1 8 -365 8 -286 1 -542 -2
-570 -5z"/>
<path d="M2363 1483 c15 -2 39 -2 55 0 15 2 2 4 -28 4 -30 0 -43 -2 -27 -4z"/>
<path d="M2095 1470 l-150 -7 185 2 c101 1 203 -2 226 -7 24 -5 61 -5 90 0
l49 10 -66 1 c-36 0 -93 3 -125 4 -32 2 -126 1 -209 -3z"/>
<path d="M2523 1473 c15 -2 37 -2 50 0 12 2 0 4 -28 4 -27 0 -38 -2 -22 -4z"/>
<path d="M1153 1463 c126 -2 328 -2 450 0 122 1 20 2 -228 2 -247 0 -347 -1
-222 -2z"/>
<path d="M2628 1463 c17 -2 47 -2 65 0 17 2 3 4 -33 4 -36 0 -50 -2 -32 -4z"/>
<path d="M3183 1463 c115 -2 299 -2 410 0 111 1 18 2 -208 2 -225 0 -316 -1
-202 -2z"/>
<path d="M803 1453 c20 -2 54 -2 75 0 20 2 3 4 -38 4 -41 0 -58 -2 -37 -4z"/>
<path d="M2818 1453 c17 -2 47 -2 65 0 17 2 3 4 -33 4 -36 0 -50 -2 -32 -4z"/>
<path d="M2546 1428 c21 -4 154 -6 294 -6 140 1 244 2 230 4 -53 7 -561 9
-524 2z"/>
<path d="M758 1423 c12 -2 32 -2 45 0 12 2 2 4 -23 4 -25 0 -35 -2 -22 -4z"/>
<path d="M933 1423 c20 -2 54 -2 75 0 20 2 3 4 -38 4 -41 0 -58 -2 -37 -4z"/>
<path d="M1378 1423 c94 -2 250 -2 345 0 94 1 17 3 -173 3 -190 0 -267 -2
-172 -3z"/>
<path d="M2153 1423 c26 -2 68 -2 95 0 26 2 4 3 -48 3 -52 0 -74 -1 -47 -3z"/>
<path d="M2328 1423 c7 -3 16 -2 19 1 4 3 -2 6 -13 5 -11 0 -14 -3 -6 -6z"/>
<path d="M2413 1423 c15 -2 39 -2 55 0 15 2 2 4 -28 4 -30 0 -43 -2 -27 -4z"/>
<path d="M3313 1423 c93 -2 241 -2 330 0 89 1 14 3 -168 3 -181 0 -254 -2
-162 -3z"/>
<path d="M3928 1423 c34 -2 88 -2 120 0 31 2 3 3 -63 3 -66 0 -92 -1 -57 -3z"/>
<path d="M1143 1403 c26 -2 68 -2 95 0 26 2 4 3 -48 3 -52 0 -74 -1 -47 -3z"/>
<path d="M3533 1403 c32 -2 81 -2 110 0 29 2 3 3 -58 3 -60 0 -84 -1 -52 -3z"/>
<path d="M688 1393 c39 -2 105 -2 145 0 39 1 7 3 -73 3 -80 0 -112 -2 -72 -3z"/>
<path d="M1678 1393 c116 -2 308 -2 425 0 116 1 21 2 -213 2 -234 0 -329 -1
-212 -2z"/>
<path d="M1155 1230 c-94 -66 -171 -127 -173 -135 -5 -20 259 -374 279 -375 9
0 26 9 39 20 13 11 26 20 29 20 3 0 22 14 41 30 19 17 43 33 53 36 9 3 17 9
17 13 0 4 16 16 35 27 19 10 35 22 35 26 0 4 15 15 33 24 17 9 40 24 49 33 30
28 48 42 48 36 0 -3 -11 -33 -25 -67 -14 -35 -23 -68 -21 -75 5 -12 -68 -128
-105 -169 -10 -11 -19 -24 -19 -29 0 -4 -22 -52 -50 -106 -27 -54 -50 -101
-50 -106 0 -4 25 17 55 47 30 30 55 59 55 66 0 6 9 23 21 38 17 21 24 24 35
15 22 -18 16 -46 -15 -71 -30 -24 -106 -137 -97 -145 6 -7 204 170 236 211 47
61 103 116 117 116 8 0 42 20 76 44 34 24 102 67 151 96 49 28 111 69 138 92
39 33 48 46 48 72 0 31 -24 66 -46 66 -6 0 -28 -18 -49 -41 -61 -63 -143 -123
-222 -163 -40 -20 -79 -45 -85 -56 -7 -11 -20 -20 -30 -20 -9 0 -31 -18 -49
-41 -32 -40 -32 -40 -52 -21 -20 20 -20 20 1 49 12 17 23 41 26 55 2 15 11 37
19 50 9 12 25 62 36 110 11 49 32 111 47 139 l26 52 -24 -6 c-12 -4 -39 -7
-59 -7 l-37 0 -22 -90 c-12 -50 -24 -89 -26 -87 -2 2 5 43 15 90 l19 87 -80
58 -80 57 67 5 c56 4 70 9 83 28 l14 22 -90 0 -91 0 -231 -166 c-127 -91 -234
-164 -236 -161 -3 3 88 72 203 153 114 81 215 153 223 161 12 11 2 13 -61 13
l-74 0 -170 -120z m63 -202 c30 -30 -4 -77 -41 -57 -20 11 -23 55 -4 62 21 9
32 8 45 -5z"/>
<path d="M3290 1344 c0 -5 42 -81 94 -169 51 -88 92 -162 90 -164 -6 -6 -324
143 -344 161 -24 22 -32 23 -28 3 2 -9 120 -70 293 -151 159 -74 291 -137 293
-139 2 -2 -4 -17 -13 -34 l-16 -31 -60 30 c-50 26 -59 34 -54 50 8 24 -3 26
-20 4 -10 -15 -15 -14 -52 5 -34 17 -40 24 -36 43 6 22 5 22 -13 7 -17 -14
-23 -15 -52 -2 -26 11 -32 18 -27 33 7 23 -13 28 -21 5 -5 -12 -12 -12 -44 5
-31 16 -37 24 -33 42 4 22 4 22 -11 4 -15 -19 -17 -19 -52 -3 -28 14 -34 21
-29 37 7 23 -10 27 -22 6 -7 -13 -14 -12 -51 4 -36 16 -42 23 -37 40 7 23 -10
28 -19 5 -5 -14 -11 -13 -45 4 -31 16 -38 25 -34 41 3 11 0 20 -6 20 -6 0 -11
-13 -11 -29 0 -26 6 -31 68 -57 71 -30 78 -36 400 -347 143 -137 144 -138 128
-162 -9 -14 -20 -25 -25 -25 -16 0 -31 27 -25 44 5 14 2 16 -17 11 -19 -5 -31
1 -53 24 -26 27 -27 32 -15 47 12 15 12 16 -9 9 -31 -9 -75 29 -66 58 5 15 2
18 -13 13 -23 -7 -82 47 -64 59 6 3 9 11 5 16 -4 7 -10 6 -18 0 -18 -15 -69
39 -60 63 5 14 2 16 -17 11 -19 -5 -31 1 -53 24 -26 27 -27 32 -15 47 13 16
12 17 -12 11 -20 -5 -32 0 -53 22 -18 19 -24 31 -17 36 6 3 9 11 5 16 -4 6
-10 7 -17 0 -8 -6 -22 -1 -42 16 -25 22 -30 34 -33 88 -4 56 -2 64 19 79 13 9
30 16 39 16 8 0 -1 -10 -20 -22 l-35 -21 60 -28 c33 -15 66 -28 73 -29 22 0
13 40 -14 65 -15 14 -22 25 -15 25 6 0 20 -9 32 -21 16 -16 20 -30 17 -65 -2
-24 0 -44 3 -44 6 0 79 150 79 163 0 4 -65 7 -144 7 -139 0 -146 -1 -174 -25
-46 -39 -171 -101 -252 -127 -109 -33 -312 -33 -420 0 -88 28 -166 66 -235
116 -48 35 -53 36 -137 36 -76 0 -89 -2 -98 -20 -8 -15 -23 -20 -67 -22 l-57
-3 58 -38 c73 -49 103 -54 177 -32 56 17 63 17 87 3 73 -44 39 -148 -48 -148
-11 0 -20 -4 -20 -8 0 -8 131 -42 161 -42 9 0 41 18 72 40 79 57 125 52 147
-15 14 -43 -2 -75 -50 -100 -17 -9 -30 -18 -30 -22 0 -12 154 7 177 22 13 9
40 40 60 70 31 48 40 55 69 55 24 0 39 -8 58 -31 32 -38 33 -60 1 -106 -13
-20 -23 -39 -21 -41 9 -9 134 58 154 82 11 15 26 52 33 83 14 59 41 87 80 81
32 -4 34 -23 5 -36 -21 -9 -27 -8 -35 6 -5 9 -12 14 -16 11 -8 -9 56 -137 71
-143 6 -2 17 7 23 20 10 23 9 24 -14 18 -34 -8 -34 22 0 38 14 6 25 15 25 20
0 5 -13 2 -30 -7 -43 -22 -50 -18 -12 7 22 14 31 26 27 36 -5 12 -1 12 15 -3
22 -20 25 -50 10 -91 -6 -15 -9 -29 -6 -31 7 -7 85 67 103 98 10 16 21 29 24
29 7 0 176 -161 455 -432 60 -60 115 -108 120 -108 14 0 76 65 68 72 -3 3 1
26 10 50 l15 43 -102 103 -102 103 59 -26 c107 -47 135 -65 151 -95 19 -36 23
-36 66 -7 22 15 36 33 40 56 6 30 4 35 -23 50 -28 15 -50 49 -223 346 -32 55
-60 95 -62 89 -2 -6 46 -96 107 -199 60 -104 110 -193 110 -197 0 -5 -23 3
-52 18 -43 22 -49 28 -35 36 10 5 15 14 11 19 -4 6 -11 6 -19 -1 -11 -9 -18
-5 -35 22 -23 38 -24 44 -10 53 18 11 11 26 -8 16 -14 -8 -22 -2 -40 29 -18
32 -19 39 -7 44 23 8 18 28 -5 21 -15 -5 -24 2 -39 26 -19 31 -19 34 -3 53 16
18 16 19 -10 12 -21 -5 -28 -2 -33 13 -6 21 -35 49 -35 35z m344 -535 c-6 -11
-24 -2 -24 11 0 5 7 7 15 4 8 -4 12 -10 9 -15z"/>
<path d="M2065 1306 c34 -23 127 -53 205 -66 97 -16 211 -7 311 27 154 51 147
52 -211 53 -276 0 -322 -2 -305 -14z"/>
<path d="M2846 1002 c-4 -7 -4 -17 0 -24 4 -7 3 -8 -4 -4 -17 10 -15 1 13 -54
24 -47 24 -50 6 -50 -10 0 -29 17 -45 40 -14 22 -29 40 -32 40 -5 0 31 -66 46
-83 4 -4 3 -27 -2 -50 -9 -40 -5 -52 99 -287 108 -246 134 -295 150 -289 52
23 112 66 108 79 -3 8 -56 134 -119 280 -98 229 -116 265 -135 266 -32 2 -41
15 -61 85 -9 36 -20 57 -24 51z m61 -155 c1 -1 51 -112 112 -246 84 -185 108
-247 99 -253 -26 -17 -70 -39 -73 -36 -1 2 -49 110 -105 240 -89 207 -101 242
-96 274 7 33 9 35 34 29 15 -4 28 -7 29 -8z m73 -86 c-1 -12 -39 64 -39 79 0
8 8 -5 19 -29 11 -24 20 -46 20 -50z m184 -437 c4 -9 5 -18 4 -19 -56 -36 -96
-53 -106 -43 -18 18 -15 26 26 52 44 29 67 32 76 10z"/>
<path d="M2450 921 c-41 -68 -44 -71 -80 -71 -33 0 -41 5 -59 36 -12 20 -24
34 -28 31 -3 -3 5 -22 17 -41 12 -20 19 -40 16 -44 -24 -39 -66 -523 -52 -598
12 -59 90 -82 162 -48 22 10 37 26 41 42 7 30 -14 392 -27 467 -26 140 -26
138 20 215 23 40 40 74 37 77 -3 2 -24 -27 -47 -66z m-40 -116 c0 -23 -4 -25
-45 -25 -37 0 -45 3 -45 18 0 27 9 32 52 32 34 0 38 -3 38 -25z m-6 -411 c20
-19 20 -24 0 -52 -26 -37 -74 -23 -74 23 0 42 44 59 74 29z"/>
<path d="M2593 928 c-21 -10 -22 -16 -17 -72 7 -73 91 -457 102 -468 5 -5 23
-5 40 -2 25 5 32 12 32 31 0 35 -88 424 -99 437 -5 6 -12 28 -16 49 -8 40 -9
41 -42 25z m94 -404 c16 -76 16 -84 -1 -84 -12 0 -36 86 -36 133 0 40 25 8 37
-49z"/>
<path d="M2099 885 c-22 -12 -33 -36 -73 -172 -25 -87 -46 -161 -46 -165 0 -5
9 1 20 12 25 25 66 26 72 2 6 -22 -31 -77 -52 -77 -8 0 -18 11 -21 25 -4 16
-7 5 -8 -32 0 -32 3 -58 8 -58 5 0 32 35 60 79 40 63 59 108 96 232 25 84 45
156 45 161 0 13 -73 8 -101 -7z"/>
<path d="M3630 864 c0 -9 5 -14 12 -12 18 6 21 28 4 28 -9 0 -16 -7 -16 -16z"/>
</g>
</svg>
