<svg width="474" height="379" xmlns="http://www.w3.org/2000/svg" preserveAspectRatio="xMidYMid meet" version="1.0">

 <g>
  <title>Layer 1</title>
  <g id="svg_1" fill="#000000" transform="translate(0 379) scale(0.1 0.1)">
   <path fill="#ffffff" id="svg_2" d="m2711,3625c-56,-53 -93,-58 -138,-21c-50,41 -74,48 -195,54c-232,10 -387,-37 -495,-151c-43,-45 -103,-140 -103,-163c0,-3 24,7 53,24c121,68 246,95 309,69c44,-18 64,-48 87,-124l17,-58l131,-3l131,-3l7,43c25,148 119,201 209,118c37,-34 50,-40 89,-40c79,0 77,-4 77,144c0,89 -4,136 -12,144c-7,7 -36,12 -65,12c-50,0 -57,-3 -102,-45zm104,6c19,-8 19,-8 -5,-16c-14,-4 -44,-25 -67,-46c-28,-26 -52,-39 -70,-39l-28,0l28,18c15,11 43,35 61,55c34,38 46,42 81,28zm-348,-20c13,-8 -16,-11 -112,-11c-194,-1 -323,-35 -419,-112c-29,-24 -36,-26 -27,-10c27,50 131,115 226,139c59,15 303,11 332,-6zm-257,-140c34,-23 70,-97 70,-141c-1,-34 -2,-34 -35,31c-34,66 -83,119 -111,119c-8,0 -14,5 -14,11c0,15 59,2 90,-20zm527,7c42,-39 26,-48 -32,-16c-30,16 -55,31 -55,34c0,14 67,1 87,-18z"/>
   <path fill="#ffffff" id="svg_3" d="m1107,3623c-16,-15 -5,-51 23,-78c17,-16 30,-37 30,-46c0,-22 108,-151 120,-144c5,3 82,-89 171,-205c90,-115 166,-210 169,-210c3,0 23,16 45,34l40,34l-26,29c-14,15 -94,103 -178,195c-84,92 -150,172 -147,177c7,11 -98,133 -123,142c-9,4 -31,23 -49,43c-29,33 -59,45 -75,29zm87,-78c17,-21 26,-36 19,-32c-6,4 -31,31 -54,60c-24,28 -33,43 -20,32c13,-11 37,-38 55,-60zm413,-506c-29,-26 -33,-26 -45,-11c-26,33 -33,56 -8,27l26,-30l22,22l22,23l-24,27c-25,28 -24,28 7,-1l33,-30l-33,-27z"/>
   <path fill="#ffffff" id="svg_4" d="m3238,3420c-79,-24 -128,-85 -128,-161c0,-61 -25,-169 -48,-215c-11,-22 -59,-90 -106,-152l-87,-112l40,0c23,0 64,-9 93,-20c28,-11 52,-19 53,-17c1,1 34,46 73,99c80,108 129,150 198,167c105,27 160,78 190,177c24,82 17,84 -67,14c-69,-58 -102,-63 -147,-25c-33,27 -62,81 -62,114c0,14 22,38 65,72c36,28 65,55 65,60c0,11 -95,10 -132,-1zm-50,-293c14,-21 47,-52 74,-69c26,-17 48,-33 48,-35c0,-2 -17,4 -37,12c-53,22 -101,71 -129,130c-29,61 -31,96 -3,40c12,-22 32,-57 47,-78z"/>
   <path fill="#ffffff" id="svg_5" d="m1032,3290c-16,-16 -32,-26 -36,-23c-3,4 -6,2 -6,-4c0,-6 -34,-45 -75,-87c-41,-42 -72,-76 -69,-76c3,0 -8,-14 -25,-31c-17,-17 -31,-35 -31,-40c0,-6 -4,-8 -8,-5c-4,2 -8,-4 -9,-14c-1,-13 42,-49 153,-125l155,-107l32,28l32,29l-27,-31c-16,-16 -28,-33 -28,-37c0,-7 46,-50 94,-88c21,-17 30,-18 75,-8c28,6 53,14 56,19c3,5 -6,20 -20,34c-32,32 -32,70 0,101c31,32 56,31 94,-1l31,-26l10,27c5,14 10,43 10,64c0,33 -7,45 -56,91l-56,53l-90,-94l-90,-94l81,91c45,50 81,94 81,98c0,7 -239,286 -245,286c-2,0 -17,-13 -33,-30z"/>
   <path fill="#ffffff" id="svg_6" d="m3755,3291c-28,-16 -106,-85 -175,-153c-121,-121 -241,-215 -259,-203c-5,3 -16,2 -24,-1c-17,-6 -67,-77 -67,-95c0,-6 -12,-20 -26,-31c-14,-11 -23,-27 -20,-34c4,-10 -33,-43 -109,-99c-63,-47 -115,-87 -115,-90c0,-13 25,2 124,75c60,45 113,79 118,78c12,-4 44,-56 38,-61c-3,-2 -38,-27 -79,-55c-41,-29 -68,-52 -61,-52c8,0 46,22 85,50l72,49l52,-72l51,-72l-72,-3c-63,-3 -70,-5 -51,-15c17,-9 -276,-11 -1303,-9l-1324,2l0,-175l0,-175l1780,0l1780,0l0,175l0,175l-387,0l-388,1l-62,87c-61,85 -62,87 -42,101c12,8 49,24 82,35c49,17 63,26 67,46c8,36 125,122 277,205c199,107 268,190 232,276c-16,39 -63,69 -109,69c-20,0 -56,-12 -85,-29zm-40,-95c33,-26 99,-138 92,-159c-2,-6 -15,14 -29,44c-14,31 -45,75 -69,97c-47,46 -44,56 6,18zm-23,-43c41,-43 82,-116 76,-135c-3,-7 -14,8 -25,34c-12,25 -40,67 -63,92c-51,55 -40,62 12,9zm-280,-306c20,-38 0,-25 -31,21c-31,43 -31,45 -6,22c15,-14 31,-33 37,-43zm-121,-84l22,-36l-24,-17c-28,-22 -28,-22 -64,31l-29,41l24,18c28,21 38,16 71,-37zm-1063,-298c46,-16 125,-19 157,-5c12,4 -5,6 -41,3c-37,-3 -69,-1 -80,6c-15,9 4,11 84,9c56,-1 97,-5 90,-9c-7,-4 -9,-11 -6,-15c4,-4 19,1 32,10c23,14 104,16 861,16c550,0 835,-3 835,-10c0,-6 -77,-11 -207,-12l-208,-3l208,-2c156,-3 208,-6 205,-15c-3,-9 -42,-12 -139,-10c-74,1 -159,-2 -189,-7l-55,-9l86,-1c47,0 133,-4 191,-7l105,-7l1,-28c1,-26 -3,-29 -31,-31l-32,-1l31,-4l32,-4l1,-65l1,-64l-553,-2l-552,-3l553,-2c303,-2 552,-7 552,-12c0,-4 -75,-11 -167,-14c-198,-8 -682,-6 -573,2c41,3 -190,6 -515,6c-324,0 -507,-2 -405,-5c102,-3 -134,-3 -525,0c-854,6 -803,5 -995,1c-85,-1 -202,-1 -260,0c-99,3 -96,4 55,9l160,6l-157,2l-158,2l0,45c0,36 4,45 18,46c16,1 16,2 -1,6c-10,2 -16,12 -15,21c3,14 21,18 123,22l120,6l-122,2c-102,2 -123,5 -123,17c0,8 8,16 18,16c16,1 16,2 -1,6c-10,3 -17,11 -15,19c3,13 92,14 648,13c355,-1 677,0 715,2c39,2 97,3 130,3c389,-7 1395,-7 1395,-1c0,4 42,5 93,1c50,-4 89,-3 85,1c-8,9 -1584,22 -1693,13c-102,-8 -1375,3 -1375,12c0,6 42,11 103,12l102,2l-102,3c-57,2 -103,7 -103,11c0,4 352,8 783,9c661,2 789,0 825,-12zm875,-52c-7,-2 -21,-2 -30,0c-10,3 -4,5 12,5c17,0 24,-2 18,-5z"/>
   <path fill="#ffffff" id="svg_7" d="m1913,2463c9,-2 23,-2 30,0c6,3 -1,5 -18,5c-16,0 -22,-2 -12,-5z"/>
   <path fill="#ffffff" id="svg_8" d="m2075,2460c-23,-6 -14,-8 39,-9c38,0 67,1 65,3c-10,9 -77,13 -104,6z"/>
   <path fill="#ffffff" id="svg_9" d="m2520,2460c-14,-4 18,-5 70,-2c52,2 97,6 99,8c8,7 -144,2 -169,-6z"/>
   <path fill="#ffffff" id="svg_10" d="m1028,2453c28,-2 76,-2 105,0c28,2 5,3 -53,3c-58,0 -81,-1 -52,-3z"/>
   <path fill="#ffffff" id="svg_11" d="m1378,2453c45,-2 119,-2 165,0c45,1 8,3 -83,3c-91,0 -128,-2 -82,-3z"/>
   <path fill="#ffffff" id="svg_12" d="m1638,2453c7,-3 16,-2 19,1c4,3 -2,6 -13,5c-11,0 -14,-3 -6,-6z"/>
   <path fill="#ffffff" id="svg_13" d="m1707,2453c18,-2 50,-2 70,0c21,2 7,4 -32,4c-38,0 -55,-2 -38,-4z"/>
   <path fill="#ffffff" id="svg_14" d="m2933,2453c108,-2 286,-2 395,0c108,1 19,2 -198,2c-217,0 -306,-1 -197,-2z"/>
   <path fill="#ffffff" id="svg_15" d="m1985,2440c-25,-11 1,-11 35,0c20,6 21,8 5,8c-11,0 -29,-3 -40,-8z"/>
   <path fill="#ffffff" id="svg_16" d="m1725,2380l-430,-5l515,-2c294,-1 506,2 495,7c-11,5 -49,8 -85,7c-36,-1 -258,-4 -495,-7z"/>
   <path fill="#ffffff" id="svg_17" d="m2377,2383c18,-2 50,-2 70,0c21,2 7,4 -32,4c-38,0 -55,-2 -38,-4z"/>
   <path fill="#ffffff" id="svg_18" d="m2610,2380c126,-10 282,-12 296,-2c7,4 -79,8 -190,8c-162,1 -183,0 -106,-6z"/>
   <path fill="#ffffff" id="svg_19" d="m978,2373c39,-2 105,-2 145,0c39,1 7,3 -73,3c-80,0 -112,-2 -72,-3z"/>
   <path fill="#ffffff" id="svg_20" d="m3213,2373c20,-2 54,-2 75,0c20,2 3,4 -38,4c-41,0 -58,-2 -37,-4z"/>
   <path fill="#ffffff" id="svg_21" d="m3538,2373c23,-2 59,-2 80,0c20,2 1,4 -43,4c-44,0 -61,-2 -37,-4z"/>
   <path fill="#ffffff" id="svg_22" d="m3788,2373c68,-2 176,-2 240,0c64,1 9,3 -123,3c-132,0 -185,-2 -117,-3z"/>
   <path fill="#ffffff" id="svg_23" d="m3728,2343c17,-2 47,-2 65,0c17,2 3,4 -33,4c-36,0 -50,-2 -32,-4z"/>
   <path fill="#ffffff" id="svg_24" d="m1463,2333c136,-2 358,-2 495,0c136,1 24,2 -248,2c-272,0 -384,-1 -247,-2z"/>
   <path fill="#ffffff" id="svg_25" d="m2743,2333c103,-2 271,-2 375,0c103,1 18,2 -188,2c-206,0 -291,-1 -187,-2z"/>
   <path fill="#ffffff" id="svg_26" d="m3508,2333c23,-2 59,-2 80,0c20,2 1,4 -43,4c-44,0 -61,-2 -37,-4z"/>
   <path fill="#ffffff" id="svg_27" d="m3908,2333c12,-2 32,-2 45,0c12,2 2,4 -23,4c-25,0 -35,-2 -22,-4z"/>
   <path fill="#ffffff" id="svg_28" d="m800,2321c-116,-5 -84,-7 158,-8c167,-1 302,0 300,1c-8,8 -326,12 -458,7z"/>
   <path fill="#ffffff" id="svg_29" d="m4013,2323c15,-2 37,-2 50,0c12,2 0,4 -28,4c-27,0 -38,-2 -22,-4z"/>
   <path fill="#ffffff" id="svg_30" d="m1700,2310l-85,-6l90,-1c50,0 104,3 120,7l30,8l-35,-1c-19,0 -73,-4 -120,-7z"/>
   <path fill="#ffffff" id="svg_31" d="m3183,2313c54,-2 139,-2 190,0c51,1 7,3 -98,3c-104,0 -146,-2 -92,-3z"/>
   <path fill="#ffffff" id="svg_32" d="m3663,2313c48,-2 125,-2 170,0c45,1 6,3 -88,3c-93,0 -130,-2 -82,-3z"/>
   <path fill="#ffffff" id="svg_33" d="m1953,2303c42,-2 112,-2 155,0c42,1 7,3 -78,3c-85,0 -120,-2 -77,-3z"/>
   <path fill="#ffffff" id="svg_34" d="m3503,2303c15,-2 37,-2 50,0c12,2 0,4 -28,4c-27,0 -38,-2 -22,-4z"/>
   <path fill="#ffffff" id="svg_35" d="m893,2283c59,-2 155,-2 215,0c59,1 10,3 -108,3c-118,0 -167,-2 -107,-3z"/>
   <path fill="#ffffff" id="svg_36" d="m2453,2283c186,-2 488,-2 670,0c183,1 31,2 -338,2c-368,0 -518,-1 -332,-2z"/>
   <path fill="#ffffff" id="svg_37" d="m3728,2283c39,-2 105,-2 145,0c39,1 7,3 -73,3c-80,0 -112,-2 -72,-3z"/>
   <path fill="#ffffff" id="svg_38" d="m1563,2273c15,-2 37,-2 50,0c12,2 0,4 -28,4c-27,0 -38,-2 -22,-4z"/>
   <path fill="#ffffff" id="svg_39" d="m1713,2273c9,-2 23,-2 30,0c6,3 -1,5 -18,5c-16,0 -22,-2 -12,-5z"/>
   <path fill="#ffffff" id="svg_40" d="m1843,2253c9,-2 25,-2 35,0c9,3 1,5 -18,5c-19,0 -27,-2 -17,-5z"/>
   <path fill="#ffffff" id="svg_41" d="m3713,2253c26,-2 67,-2 90,0c23,2 2,3 -48,3c-49,0 -68,-1 -42,-3z"/>
   <path fill="#ffffff" id="svg_42" d="m2608,2243c7,-3 16,-2 19,1c4,3 -2,6 -13,5c-11,0 -14,-3 -6,-6z"/>
   <path fill="#ffffff" id="svg_43" d="m3438,2243c23,-2 59,-2 80,0c20,2 1,4 -43,4c-44,0 -61,-2 -37,-4z"/>
   <path fill="#ffffff" id="svg_44" d="m2353,2193c20,-2 54,-2 75,0c20,2 3,4 -38,4c-41,0 -58,-2 -37,-4z"/>
   <path fill="#ffffff" id="svg_45" d="m2638,2193c12,-2 30,-2 40,0c9,3 -1,5 -23,4c-22,0 -30,-2 -17,-4z"/>
   <path fill="#ffffff" id="svg_46" d="m2763,2193c15,-2 39,-2 55,0c15,2 2,4 -28,4c-30,0 -43,-2 -27,-4z"/>
   <path fill="#ffffff" id="svg_47" d="m1368,2183c29,-2 74,-2 100,0c26,2 2,3 -53,3c-55,0 -76,-1 -47,-3z"/>
   <path fill="#ffffff" id="svg_48" d="m1908,2183c45,-2 119,-2 165,0c45,1 8,3 -83,3c-91,0 -128,-2 -82,-3z"/>
   <path fill="#ffffff" id="svg_49" d="m3758,2173c34,-2 90,-2 125,0c34,2 6,3 -63,3c-69,0 -97,-1 -62,-3z"/>
   <path fill="#ffffff" id="svg_50" d="m2934,3303l-51,-4l-67,-130c-38,-72 -75,-133 -83,-136c-15,-6 -83,-106 -83,-123c0,-5 -11,-12 -24,-16c-13,-3 -45,-28 -72,-55c-53,-54 -78,-61 -94,-26c-11,21 -10,21 4,3c15,-18 16,-14 17,62c1,101 1,109 0,232l-1,100l-100,0l-101,0l2,-133c0,-74 5,-153 9,-178c11,-62 -16,-115 -64,-125c-42,-7 -56,0 -56,29c0,17 -2,19 -9,8c-15,-24 -37,31 -22,55c6,11 11,14 11,8c0,-6 9,-21 20,-34c11,-13 20,-31 20,-42c0,-19 16,-23 38,-9c12,7 11,13 -2,38c-8,17 -13,41 -10,54c4,21 3,21 -4,4c-9,-19 -9,-19 -17,4c-4,14 -3,26 4,30c13,9 3,50 -27,105c-12,22 -18,44 -15,50c4,6 10,0 15,-14c5,-16 6,-11 2,15c-3,22 -17,64 -30,93c-25,55 -32,89 -13,62c8,-11 9,-8 4,15c-9,43 -41,59 -63,32c-14,-17 -1,-75 27,-120c22,-37 28,-73 10,-61c-8,4 -9,-4 -4,-27c11,-52 23,-79 35,-79c5,0 10,-7 10,-15c0,-7 8,-18 17,-24c15,-8 15,-13 5,-36c-7,-15 -16,-25 -19,-21c-4,3 -1,12 5,18c27,27 9,28 -39,2c-77,-42 -105,-81 -114,-153c-6,-51 -11,-64 -35,-81c-35,-25 -47,-25 -89,1c-33,20 -34,21 -28,77l6,57l-45,-50c-57,-64 -69,-106 -52,-185l12,-60l58,0c52,0 64,4 125,46c136,93 267,134 427,134c171,0 298,-38 433,-130l74,-51l157,3l157,3l-37,18c-32,15 -46,16 -103,7c-55,-9 -69,-8 -90,6c-20,13 -25,25 -25,58c0,57 16,76 75,85l50,8l-55,26c-89,43 -108,43 -187,4l-70,-36l-31,20c-18,10 -32,27 -32,36c0,10 -3,28 -6,41c-6,19 -3,22 25,22c35,0 38,-10 14,-51c-16,-26 -16,-31 -3,-39c25,-16 36,-11 53,25c9,19 36,56 59,81c38,41 40,46 26,61c-14,14 -11,26 41,132c31,64 75,150 96,191c22,41 41,78 43,83c4,7 -12,7 -114,0zm80,-38c-13,-20 -24,-25 -60,-25c-23,0 -45,-3 -47,-7c-3,-5 15,-6 39,-4c48,3 52,-3 28,-37c-12,-17 -25,-22 -60,-22c-37,0 -44,3 -44,19c0,11 -6,22 -12,24c-7,3 -2,6 12,6c17,1 21,4 12,9c-9,7 -10,15 -3,35c10,26 14,27 81,27l70,0l-16,-25zm-64,-115c0,-5 -6,-7 -13,-4c-8,3 -18,-6 -25,-21c-9,-20 -19,-25 -47,-25c-39,0 -39,0 -23,35c10,22 17,25 60,25c26,0 48,-4 48,-10zm-60,-68c0,-25 -34,-52 -66,-52c-38,0 -41,6 -18,38c11,15 25,22 50,22c19,0 34,-3 34,-8zm-44,-78c-3,-9 -6,-20 -6,-25c0,-5 -20,-9 -45,-9l-45,0l16,25c12,19 25,25 51,25c28,0 34,-3 29,-16zm-431,-58c-46,-16 -77,-33 -92,-52c-13,-16 -23,-24 -23,-18c0,29 110,94 160,94c14,0 -5,-11 -45,-24zm405,9c0,-6 -20,-56 -39,-92c-13,-28 -21,-33 -50,-33c-40,0 -40,1 17,33l43,24l-40,7l-39,6l14,30c13,26 21,30 55,30c21,0 39,-2 39,-5zm-373,-102c-4,-17 -4,-17 -12,0c-4,9 -4,25 0,35c8,16 8,16 12,0c3,-10 3,-26 0,-35z"/>
   <path fill="#ffffff" id="svg_51" d="m2092,3130c0,-14 2,-19 5,-12c2,6 2,18 0,25c-3,6 -5,1 -5,-13z"/>
   <path fill="#ffffff" id="svg_52" d="m1807,3061c-89,-45 -267,-212 -267,-249c0,-14 203,-262 215,-262c2,0 0,14 -5,30c-5,17 -40,65 -79,108c-39,42 -71,84 -71,93c0,19 145,161 213,208c57,39 53,41 144,-75c45,-57 59,-70 66,-58c6,11 -10,37 -61,97c-72,84 -111,127 -115,127c-2,0 -20,-9 -40,-19z"/>
   <path fill="#ffffff" id="svg_53" d="m2131,2954c0,-11 3,-14 6,-6c3,7 2,16 -1,19c-3,4 -6,-2 -5,-13z"/>
   <path fill="#ffffff" id="svg_54" d="m1304,2815c-13,-13 -24,-31 -24,-41c0,-20 50,-67 110,-105c29,-18 57,-48 80,-86c30,-48 40,-59 67,-61c28,-3 32,0 48,42c19,51 36,52 34,3l-1,-32l-7,30l-6,30l-11,-37l-11,-36l64,-1l64,-1l-33,41c-36,46 -94,89 -149,112c-20,8 -49,32 -65,53c-43,57 -90,101 -114,107c-15,4 -30,-2 -46,-18z"/>
   <path fill="#ffffff" id="svg_55" d="m2242,2595c-35,-8 -92,-27 -125,-44l-62,-29l335,0l335,0l-61,29c-117,56 -285,74 -422,44z"/>
   <path fill="#ffffff" id="svg_56" d="m610,1955l0,-175l1780,0l1780,0l0,175l0,175l-1780,0l-1780,0l0,-175zm1908,151c7,-4 12,-2 12,4c0,13 52,9 62,-4c10,-15 50,-15 44,0c-3,9 15,12 74,11c44,0 77,-4 75,-7c-3,-4 12,-4 33,-1c20,3 330,5 689,3l652,-3l-1,-49l0,-50l-151,-2l-152,-2l153,-3c126,-3 152,-6 152,-18c0,-11 -13,-16 -42,-17l-43,-1l43,-4c39,-4 42,-6 42,-34c0,-16 -5,-29 -12,-29c-9,0 -8,-4 2,-10c10,-6 -50,-10 -180,-12l-195,-3l192,-2l193,-3l-2,-39l-1,-39l-1249,0c-687,0 -1246,3 -1243,7c4,3 214,8 468,11l462,6l-450,2c-308,1 -463,-2 -490,-10c-54,-15 -112,-15 -127,1c-11,10 -7,11 17,6c29,-7 28,-6 -7,14c-37,20 -67,30 -39,12c14,-9 27,-51 16,-51c-3,0 -14,9 -25,20c-11,11 -32,23 -47,26c-16,4 -31,12 -35,17c-4,7 -14,7 -30,0c-21,-10 -20,-11 20,-17c23,-5 39,-12 36,-18c-3,-5 0,-9 7,-7c26,3 39,-1 39,-12c0,-8 -5,-8 -15,1c-8,7 -15,8 -15,2c0,-5 -11,-9 -25,-9c-14,0 -25,3 -25,8c0,5 5,9 12,9c6,0 9,3 5,6c-3,4 -25,-1 -48,-10c-29,-12 -45,-14 -53,-6c-7,5 -16,7 -20,3c-9,-9 -642,-17 -664,-8c-14,5 -14,7 -2,15c11,7 12,10 2,10c-9,0 -12,11 -10,33l3,32l85,6l85,5l-87,2l-88,2l0,30c0,21 5,30 18,31c14,1 14,2 1,6c-12,3 -15,18 -15,73l0,70l344,0c259,0 341,-3 336,-12c-5,-8 -2,-9 12,-2c32,15 1178,25 1202,10z"/>
   <path fill="#ffffff" id="svg_57" d="m2407,2099c7,-7 15,-10 18,-7c3,3 -2,9 -12,12c-14,6 -15,5 -6,-5z"/>
   <path fill="#ffffff" id="svg_58" d="m1108,2093c7,-3 16,-2 19,1c4,3 -2,6 -13,5c-11,0 -14,-3 -6,-6z"/>
   <path fill="#ffffff" id="svg_59" d="m1148,2093c7,-3 16,-2 19,1c4,3 -2,6 -13,5c-11,0 -14,-3 -6,-6z"/>
   <path fill="#ffffff" id="svg_60" d="m2043,2093c26,-2 67,-2 90,0c23,2 2,3 -48,3c-49,0 -68,-1 -42,-3z"/>
   <path fill="#ffffff" id="svg_61" d="m2534,2088c-3,-4 2,-8 10,-8c8,0 17,4 20,8c3,5 -2,9 -10,9c-8,0 -17,-4 -20,-9z"/>
   <path fill="#ffffff" id="svg_62" d="m3648,2093c17,-2 47,-2 65,0c17,2 3,4 -33,4c-36,0 -50,-2 -32,-4z"/>
   <path fill="#ffffff" id="svg_63" d="m977,2083c18,-2 50,-2 70,0c21,2 7,4 -32,4c-38,0 -55,-2 -38,-4z"/>
   <path fill="#ffffff" id="svg_64" d="m2908,2083c7,-3 16,-2 19,1c4,3 -2,6 -13,5c-11,0 -14,-3 -6,-6z"/>
   <path fill="#ffffff" id="svg_65" d="m2412,2068c7,-4 40,-7 73,-7c73,1 62,6 -23,11c-34,3 -57,1 -50,-4z"/>
   <path fill="#ffffff" id="svg_66" d="m3040,2070c-20,-6 -21,-8 -5,-8c11,0 31,4 45,8c20,6 21,8 5,8c-11,0 -31,-4 -45,-8z"/>
   <path fill="#ffffff" id="svg_67" d="m2598,2063c23,-2 59,-2 80,0c20,2 1,4 -43,4c-44,0 -61,-2 -37,-4z"/>
   <path fill="#ffffff" id="svg_68" d="m3248,2063c45,-2 119,-2 165,0c45,1 8,3 -83,3c-91,0 -128,-2 -82,-3z"/>
   <path fill="#ffffff" id="svg_69" d="m923,2053c37,-2 96,-2 130,0c34,2 4,3 -68,3c-71,0 -99,-1 -62,-3z"/>
   <path fill="#ffffff" id="svg_70" d="m1503,2053c87,-2 227,-2 310,0c84,1 13,3 -158,3c-170,0 -239,-2 -152,-3z"/>
   <path fill="#ffffff" id="svg_71" d="m2077,2053c18,-2 50,-2 70,0c21,2 7,4 -32,4c-38,0 -55,-2 -38,-4z"/>
   <path fill="#ffffff" id="svg_72" d="m2278,2053c23,-2 59,-2 80,0c20,2 1,4 -43,4c-44,0 -61,-2 -37,-4z"/>
   <path fill="#ffffff" id="svg_73" d="m3683,2053c43,-2 110,-2 150,0c40,1 5,3 -78,3c-82,0 -115,-2 -72,-3z"/>
   <path fill="#ffffff" id="svg_74" d="m1010,2030l-55,-7l65,0c36,-1 76,3 90,7c22,7 21,8 -10,7c-19,0 -60,-3 -90,-7z"/>
   <path fill="#ffffff" id="svg_75" d="m1188,2033c28,-2 76,-2 105,0c28,2 5,3 -53,3c-58,0 -81,-1 -52,-3z"/>
   <path fill="#ffffff" id="svg_76" d="m2688,2033c94,-2 250,-2 345,0c94,1 17,3 -173,3c-190,0 -267,-2 -172,-3z"/>
   <path fill="#ffffff" id="svg_77" d="m3343,2033c9,-2 23,-2 30,0c6,3 -1,5 -18,5c-16,0 -22,-2 -12,-5z"/>
   <path fill="#ffffff" id="svg_78" d="m3413,2033c9,-2 25,-2 35,0c9,3 1,5 -18,5c-19,0 -27,-2 -17,-5z"/>
   <path fill="#ffffff" id="svg_79" d="m1398,2023c29,-2 74,-2 100,0c26,2 2,3 -53,3c-55,0 -76,-1 -47,-3z"/>
   <path fill="#ffffff" id="svg_80" d="m3698,2021c45,-4 119,-4 165,0c63,4 43,6 -83,6c-126,0 -146,-2 -82,-6z"/>
   <path fill="#ffffff" id="svg_81" d="m688,2013c29,-2 74,-2 100,0c26,2 2,3 -53,3c-55,0 -76,-1 -47,-3z"/>
   <path fill="#ffffff" id="svg_82" d="m863,2003c9,-2 23,-2 30,0c6,3 -1,5 -18,5c-16,0 -22,-2 -12,-5z"/>
   <path fill="#ffffff" id="svg_83" d="m1068,2003c6,-2 18,-2 25,0c6,3 1,5 -13,5c-14,0 -19,-2 -12,-5z"/>
   <path fill="#ffffff" id="svg_84" d="m1593,2003c114,-2 300,-2 415,0c114,1 20,2 -208,2c-228,0 -322,-1 -207,-2z"/>
   <path fill="#ffffff" id="svg_85" d="m2613,2003c9,-2 25,-2 35,0c9,3 1,5 -18,5c-19,0 -27,-2 -17,-5z"/>
   <path fill="#ffffff" id="svg_86" d="m2748,2003c7,-3 16,-2 19,1c4,3 -2,6 -13,5c-11,0 -14,-3 -6,-6z"/>
   <path fill="#ffffff" id="svg_87" d="m3063,2003c108,-2 286,-2 395,0c108,1 19,2 -198,2c-217,0 -306,-1 -197,-2z"/>
   <path fill="#ffffff" id="svg_88" d="m1003,1993c9,-2 25,-2 35,0c9,3 1,5 -18,5c-19,0 -27,-2 -17,-5z"/>
   <path fill="#ffffff" id="svg_89" d="m922,1963c70,-2 187,-2 260,0c73,1 16,3 -127,3c-143,0 -203,-2 -133,-3z"/>
   <path fill="#ffffff" id="svg_90" d="m1443,1963c43,-2 110,-2 150,0c40,1 5,3 -78,3c-82,0 -115,-2 -72,-3z"/>
   <path fill="#ffffff" id="svg_91" d="m2010,1960c85,-4 207,-7 270,-7l115,0l-140,8c-77,3 -198,6 -270,6l-130,-1l155,-6z"/>
   <path fill="#ffffff" id="svg_92" d="m2683,1963c153,-2 401,-2 550,0c150,1 25,2 -278,2c-302,0 -425,-1 -272,-2z"/>
   <path fill="#ffffff" id="svg_93" d="m3633,1963c53,-2 141,-2 195,0c53,1 9,3 -98,3c-107,0 -151,-2 -97,-3z"/>
   <path fill="#ffffff" id="svg_94" d="m1103,1893c26,-2 67,-2 90,0c23,2 2,3 -48,3c-49,0 -68,-1 -42,-3z"/>
   <path fill="#ffffff" id="svg_95" d="m1458,1893c45,-2 119,-2 165,0c45,1 8,3 -83,3c-91,0 -128,-2 -82,-3z"/>
   <path fill="#ffffff" id="svg_96" d="m1968,1893c28,-2 76,-2 105,0c28,2 5,3 -53,3c-58,0 -81,-1 -52,-3z"/>
   <path fill="#ffffff" id="svg_97" d="m2938,1893c7,-3 16,-2 19,1c4,3 -2,6 -13,5c-11,0 -14,-3 -6,-6z"/>
   <path fill="#ffffff" id="svg_98" d="m2993,1893c9,-2 25,-2 35,0c9,3 1,5 -18,5c-19,0 -27,-2 -17,-5z"/>
   <path fill="#ffffff" id="svg_99" d="m3088,1893c6,-2 18,-2 25,0c6,3 1,5 -13,5c-14,0 -19,-2 -12,-5z"/>
   <path fill="#ffffff" id="svg_100" d="m3708,1893c29,-2 74,-2 100,0c26,2 2,3 -53,3c-55,0 -76,-1 -47,-3z"/>
   <path fill="#ffffff" id="svg_101" d="m3405,1880c-41,-5 -9,-7 100,-7c109,-1 147,2 120,8c-45,9 -132,9 -220,-1z"/>
   <path fill="#ffffff" id="svg_102" d="m1028,1873c12,-2 32,-2 45,0c12,2 2,4 -23,4c-25,0 -35,-2 -22,-4z"/>
   <path fill="#ffffff" id="svg_103" d="m1165,1870c-12,-5 32,-6 105,-4c68,3 126,7 129,9c8,9 -214,4 -234,-5z"/>
   <path fill="#ffffff" id="svg_104" d="m1538,1873c45,-2 119,-2 165,0c45,1 8,3 -83,3c-91,0 -128,-2 -82,-3z"/>
   <path fill="#ffffff" id="svg_105" d="m2008,1873c123,-2 321,-2 440,0c119,1 19,2 -223,2c-242,0 -340,-1 -217,-2z"/>
   <path fill="#ffffff" id="svg_106" d="m2158,1853c7,-3 16,-2 19,1c4,3 -2,6 -13,5c-11,0 -14,-3 -6,-6z"/>
   <path fill="#ffffff" id="svg_107" d="m1314,1839c-3,-6 -1,-16 5,-22c8,-8 11,-5 11,11c0,24 -5,28 -16,11z"/>
   <path fill="#ffffff" id="svg_108" d="m2913,1843c9,-2 23,-2 30,0c6,3 -1,5 -18,5c-16,0 -22,-2 -12,-5z"/>
   <path fill="#ffffff" id="svg_109" d="m955,1820l-60,-7l60,0c33,-1 85,2 115,7l55,7l-55,0c-30,0 -82,-3 -115,-7z"/>
   <path fill="#ffffff" id="svg_110" d="m2648,1823c6,-2 18,-2 25,0c6,3 1,5 -13,5c-14,0 -19,-2 -12,-5z"/>
   <path fill="#ffffff" id="svg_111" d="m3263,1823c37,-2 96,-2 130,0c34,2 4,3 -68,3c-71,0 -99,-1 -62,-3z"/>
   <path fill="#ffffff" id="svg_112" d="m3673,1813c48,-2 125,-2 170,0c45,1 6,3 -88,3c-93,0 -130,-2 -82,-3z"/>
   <path fill="#ffffff" id="svg_113" d="m610,1585l0,-175l1780,0l1780,0l0,175l0,175l-1780,0l-1780,0l0,-175zm888,160c-3,-3 -32,-9 -64,-13c-42,-6 -9,-8 118,-7c97,0 175,1 174,2c-1,2 -20,7 -42,12c-24,6 426,9 1219,10c823,1 1257,-2 1257,-9c0,-6 -288,-10 -827,-9c-456,0 -992,0 -1193,-2l-365,-2l270,-8c149,-5 285,-6 303,-3c17,3 355,5 750,5c1032,1 1062,0 1062,-11c0,-9 -1495,-16 -2810,-12l-215,0l150,-10c164,-10 1136,-14 1495,-6c124,3 187,3 140,-1c-47,-4 213,-8 578,-9c580,-2 662,-4 662,-17c0,-13 -184,-15 -1586,-15c-873,1 -1589,-2 -1593,-5c-3,-4 264,-6 594,-5c330,1 1046,1 1591,1l991,-1l0,-42l0,-43l-846,0c-527,1 -791,-2 -701,-7c80,-5 299,-5 487,-2c385,7 1063,-4 1063,-17c0,-5 -62,-10 -137,-11l-138,-2l136,-3l136,-4l1,-24l0,-25l-177,-2l-176,-2l180,-6c99,-3 176,-7 170,-8c-14,-3 -1148,-3 -1160,0c-5,1 87,5 205,8c155,4 91,6 -230,6c-315,0 -380,-1 -223,-5c122,-3 224,-8 226,-11c3,-3 -333,-4 -746,-3c-414,2 -943,3 -1177,3c-419,0 -426,0 -427,20c-2,17 5,20 50,22l52,2l-52,3c-38,3 -53,8 -53,19c0,11 18,14 83,16l82,2l-85,6c-78,6 -81,7 -30,10c30,2 98,3 150,2c52,-1 124,2 160,6c47,6 6,8 -145,8l-210,-1l-2,43l-3,42l128,2l127,2l-128,3c-113,3 -128,6 -125,20c3,14 20,16 128,16c99,0 109,2 50,6l-75,5l90,6c85,6 82,6 -52,8l-143,2l2,25l2,25l440,0c242,0 437,-2 434,-5zm205,-62c-13,-2 -33,-2 -45,0c-13,2 -3,4 22,4c25,0 35,-2 23,-4zm1950,0c-111,-2 -295,-2 -410,0c-114,1 -23,2 202,2c226,0 319,-1 208,-2zm435,0c-43,-2 -113,-2 -155,0c-43,1 -8,3 77,3c85,0 120,-2 78,-3z"/>
   <path fill="#ffffff" id="svg_114" d="m1078,1723c46,-2 118,-2 160,0c42,1 5,3 -83,3c-88,0 -123,-2 -77,-3z"/>
   <path fill="#ffffff" id="svg_115" d="m1188,1673c23,-2 59,-2 80,0c20,2 1,4 -43,4c-44,0 -61,-2 -37,-4z"/>
   <path fill="#ffffff" id="svg_116" d="m798,1593c7,-3 16,-2 19,1c4,3 -2,6 -13,5c-11,0 -14,-3 -6,-6z"/>
   <path fill="#ffffff" id="svg_117" d="m848,1593c12,-2 32,-2 45,0c12,2 2,4 -23,4c-25,0 -35,-2 -22,-4z"/>
   <path fill="#ffffff" id="svg_118" d="m1118,1593c6,-2 18,-2 25,0c6,3 1,5 -13,5c-14,0 -19,-2 -12,-5z"/>
   <path fill="#ffffff" id="svg_119" d="m1278,1593c12,-2 32,-2 45,0c12,2 2,4 -23,4c-25,0 -35,-2 -22,-4z"/>
   <path fill="#ffffff" id="svg_120" d="m1438,1593c7,-3 16,-2 19,1c4,3 -2,6 -13,5c-11,0 -14,-3 -6,-6z"/>
   <path fill="#ffffff" id="svg_121" d="m1573,1593c9,-2 25,-2 35,0c9,3 1,5 -18,5c-19,0 -27,-2 -17,-5z"/>
   <path fill="#ffffff" id="svg_122" d="m1773,1593c82,-2 212,-2 290,0c78,1 12,3 -148,3c-159,0 -223,-2 -142,-3z"/>
   <path fill="#ffffff" id="svg_123" d="m3188,1593c178,-2 466,-2 640,0c174,1 29,2 -323,2c-352,0 -495,-1 -317,-2z"/>
   <path fill="#ffffff" id="svg_124" d="m1188,1583c12,-2 30,-2 40,0c9,3 -1,5 -23,4c-22,0 -30,-2 -17,-4z"/>
   <path fill="#ffffff" id="svg_125" d="m1738,1573c23,-2 61,-2 85,0c23,2 4,4 -43,4c-47,0 -66,-2 -42,-4z"/>
   <path fill="#ffffff" id="svg_126" d="m3868,1573c50,-2 134,-2 185,0c50,1 9,3 -93,3c-102,0 -143,-2 -92,-3z"/>
   <path fill="#ffffff" id="svg_127" d="m2338,1563c7,-3 16,-2 19,1c4,3 -2,6 -13,5c-11,0 -14,-3 -6,-6z"/>
   <path fill="#ffffff" id="svg_128" d="m1073,1543c9,-2 25,-2 35,0c9,3 1,5 -18,5c-19,0 -27,-2 -17,-5z"/>
   <path fill="#ffffff" id="svg_129" d="m1225,1541c-75,-9 757,-11 935,-3c109,6 1,8 -365,8c-286,1 -542,-2 -570,-5z"/>
   <path fill="#ffffff" id="svg_130" d="m2383,1533c15,-2 39,-2 55,0c15,2 2,4 -28,4c-30,0 -43,-2 -27,-4z"/>
   <path fill="#ffffff" id="svg_131" d="m2115,1520l-150,-7l185,2c101,1 203,-2 226,-7c24,-5 61,-5 90,0l49,10l-66,1c-36,0 -93,3 -125,4c-32,2 -126,1 -209,-3z"/>
   <path fill="#ffffff" id="svg_132" d="m2543,1523c15,-2 37,-2 50,0c12,2 0,4 -28,4c-27,0 -38,-2 -22,-4z"/>
   <path fill="#ffffff" id="svg_133" d="m1173,1513c126,-2 328,-2 450,0c122,1 20,2 -228,2c-247,0 -347,-1 -222,-2z"/>
   <path fill="#ffffff" id="svg_134" d="m2648,1513c17,-2 47,-2 65,0c17,2 3,4 -33,4c-36,0 -50,-2 -32,-4z"/>
   <path fill="#ffffff" id="svg_135" d="m3203,1513c115,-2 299,-2 410,0c111,1 18,2 -208,2c-225,0 -316,-1 -202,-2z"/>
   <path fill="#ffffff" id="svg_136" d="m823,1503c20,-2 54,-2 75,0c20,2 3,4 -38,4c-41,0 -58,-2 -37,-4z"/>
   <path fill="#ffffff" id="svg_137" d="m2838,1503c17,-2 47,-2 65,0c17,2 3,4 -33,4c-36,0 -50,-2 -32,-4z"/>
   <path fill="#ffffff" id="svg_138" d="m2566,1478c21,-4 154,-6 294,-6c140,1 244,2 230,4c-53,7 -561,9 -524,2z"/>
   <path fill="#ffffff" id="svg_139" d="m778,1473c12,-2 32,-2 45,0c12,2 2,4 -23,4c-25,0 -35,-2 -22,-4z"/>
   <path fill="#ffffff" id="svg_140" d="m953,1473c20,-2 54,-2 75,0c20,2 3,4 -38,4c-41,0 -58,-2 -37,-4z"/>
   <path fill="#ffffff" id="svg_141" d="m1398,1473c94,-2 250,-2 345,0c94,1 17,3 -173,3c-190,0 -267,-2 -172,-3z"/>
   <path fill="#ffffff" id="svg_142" d="m2173,1473c26,-2 68,-2 95,0c26,2 4,3 -48,3c-52,0 -74,-1 -47,-3z"/>
   <path fill="#ffffff" id="svg_143" d="m2348,1473c7,-3 16,-2 19,1c4,3 -2,6 -13,5c-11,0 -14,-3 -6,-6z"/>
   <path fill="#ffffff" id="svg_144" d="m2433,1473c15,-2 39,-2 55,0c15,2 2,4 -28,4c-30,0 -43,-2 -27,-4z"/>
   <path fill="#ffffff" id="svg_145" d="m3333,1473c93,-2 241,-2 330,0c89,1 14,3 -168,3c-181,0 -254,-2 -162,-3z"/>
   <path fill="#ffffff" id="svg_146" d="m3948,1473c34,-2 88,-2 120,0c31,2 3,3 -63,3c-66,0 -92,-1 -57,-3z"/>
   <path fill="#ffffff" id="svg_147" d="m1163,1453c26,-2 68,-2 95,0c26,2 4,3 -48,3c-52,0 -74,-1 -47,-3z"/>
   <path fill="#ffffff" id="svg_148" d="m3553,1453c32,-2 81,-2 110,0c29,2 3,3 -58,3c-60,0 -84,-1 -52,-3z"/>
   <path fill="#ffffff" id="svg_149" d="m708,1443c39,-2 105,-2 145,0c39,1 7,3 -73,3c-80,0 -112,-2 -72,-3z"/>
   <path fill="#ffffff" id="svg_150" d="m1698,1443c116,-2 308,-2 425,0c116,1 21,2 -213,2c-234,0 -329,-1 -212,-2z"/>
   <path fill="#ffffff" id="svg_151" d="m1175,1280c-94,-66 -171,-127 -173,-135c-5,-20 259,-374 279,-375c9,0 26,9 39,20c13,11 26,20 29,20c3,0 22,14 41,30c19,17 43,33 53,36c9,3 17,9 17,13c0,4 16,16 35,27c19,10 35,22 35,26c0,4 15,15 33,24c17,9 40,24 49,33c30,28 48,42 48,36c0,-3 -11,-33 -25,-67c-14,-35 -23,-68 -21,-75c5,-12 -68,-128 -105,-169c-10,-11 -19,-24 -19,-29c0,-4 -22,-52 -50,-106c-27,-54 -50,-101 -50,-106c0,-4 25,17 55,47c30,30 55,59 55,66c0,6 9,23 21,38c17,21 24,24 35,15c22,-18 16,-46 -15,-71c-30,-24 -106,-137 -97,-145c6,-7 204,170 236,211c47,61 103,116 117,116c8,0 42,20 76,44c34,24 102,67 151,96c49,28 111,69 138,92c39,33 48,46 48,72c0,31 -24,66 -46,66c-6,0 -28,-18 -49,-41c-61,-63 -143,-123 -222,-163c-40,-20 -79,-45 -85,-56c-7,-11 -20,-20 -30,-20c-9,0 -31,-18 -49,-41c-32,-40 -32,-40 -52,-21c-20,20 -20,20 1,49c12,17 23,41 26,55c2,15 11,37 19,50c9,12 25,62 36,110c11,49 32,111 47,139l26,52l-24,-6c-12,-4 -39,-7 -59,-7l-37,0l-22,-90c-12,-50 -24,-89 -26,-87c-2,2 5,43 15,90l19,87l-80,58l-80,57l67,5c56,4 70,9 83,28l14,22l-90,0l-91,0l-231,-166c-127,-91 -234,-164 -236,-161c-3,3 88,72 203,153c114,81 215,153 223,161c12,11 2,13 -61,13l-74,0l-170,-120zm63,-202c30,-30 -4,-77 -41,-57c-20,11 -23,55 -4,62c21,9 32,8 45,-5z"/>
   <path fill="#ffffff" id="svg_152" d="m3310,1394c0,-5 42,-81 94,-169c51,-88 92,-162 90,-164c-6,-6 -324,143 -344,161c-24,22 -32,23 -28,3c2,-9 120,-70 293,-151c159,-74 291,-137 293,-139c2,-2 -4,-17 -13,-34l-16,-31l-60,30c-50,26 -59,34 -54,50c8,24 -3,26 -20,4c-10,-15 -15,-14 -52,5c-34,17 -40,24 -36,43c6,22 5,22 -13,7c-17,-14 -23,-15 -52,-2c-26,11 -32,18 -27,33c7,23 -13,28 -21,5c-5,-12 -12,-12 -44,5c-31,16 -37,24 -33,42c4,22 4,22 -11,4c-15,-19 -17,-19 -52,-3c-28,14 -34,21 -29,37c7,23 -10,27 -22,6c-7,-13 -14,-12 -51,4c-36,16 -42,23 -37,40c7,23 -10,28 -19,5c-5,-14 -11,-13 -45,4c-31,16 -38,25 -34,41c3,11 0,20 -6,20c-6,0 -11,-13 -11,-29c0,-26 6,-31 68,-57c71,-30 78,-36 400,-347c143,-137 144,-138 128,-162c-9,-14 -20,-25 -25,-25c-16,0 -31,27 -25,44c5,14 2,16 -17,11c-19,-5 -31,1 -53,24c-26,27 -27,32 -15,47c12,15 12,16 -9,9c-31,-9 -75,29 -66,58c5,15 2,18 -13,13c-23,-7 -82,47 -64,59c6,3 9,11 5,16c-4,7 -10,6 -18,0c-18,-15 -69,39 -60,63c5,14 2,16 -17,11c-19,-5 -31,1 -53,24c-26,27 -27,32 -15,47c13,16 12,17 -12,11c-20,-5 -32,0 -53,22c-18,19 -24,31 -17,36c6,3 9,11 5,16c-4,6 -10,7 -17,0c-8,-6 -22,-1 -42,16c-25,22 -30,34 -33,88c-4,56 -2,64 19,79c13,9 30,16 39,16c8,0 -1,-10 -20,-22l-35,-21l60,-28c33,-15 66,-28 73,-29c22,0 13,40 -14,65c-15,14 -22,25 -15,25c6,0 20,-9 32,-21c16,-16 20,-30 17,-65c-2,-24 0,-44 3,-44c6,0 79,150 79,163c0,4 -65,7 -144,7c-139,0 -146,-1 -174,-25c-46,-39 -171,-101 -252,-127c-109,-33 -312,-33 -420,0c-88,28 -166,66 -235,116c-48,35 -53,36 -137,36c-76,0 -89,-2 -98,-20c-8,-15 -23,-20 -67,-22l-57,-3l58,-38c73,-49 103,-54 177,-32c56,17 63,17 87,3c73,-44 39,-148 -48,-148c-11,0 -20,-4 -20,-8c0,-8 131,-42 161,-42c9,0 41,18 72,40c79,57 125,52 147,-15c14,-43 -2,-75 -50,-100c-17,-9 -30,-18 -30,-22c0,-12 154,7 177,22c13,9 40,40 60,70c31,48 40,55 69,55c24,0 39,-8 58,-31c32,-38 33,-60 1,-106c-13,-20 -23,-39 -21,-41c9,-9 134,58 154,82c11,15 26,52 33,83c14,59 41,87 80,81c32,-4 34,-23 5,-36c-21,-9 -27,-8 -35,6c-5,9 -12,14 -16,11c-8,-9 56,-137 71,-143c6,-2 17,7 23,20c10,23 9,24 -14,18c-34,-8 -34,22 0,38c14,6 25,15 25,20c0,5 -13,2 -30,-7c-43,-22 -50,-18 -12,7c22,14 31,26 27,36c-5,12 -1,12 15,-3c22,-20 25,-50 10,-91c-6,-15 -9,-29 -6,-31c7,-7 85,67 103,98c10,16 21,29 24,29c7,0 176,-161 455,-432c60,-60 115,-108 120,-108c14,0 76,65 68,72c-3,3 1,26 10,50l15,43l-102,103l-102,103l59,-26c107,-47 135,-65 151,-95c19,-36 23,-36 66,-7c22,15 36,33 40,56c6,30 4,35 -23,50c-28,15 -50,49 -223,346c-32,55 -60,95 -62,89c-2,-6 46,-96 107,-199c60,-104 110,-193 110,-197c0,-5 -23,3 -52,18c-43,22 -49,28 -35,36c10,5 15,14 11,19c-4,6 -11,6 -19,-1c-11,-9 -18,-5 -35,22c-23,38 -24,44 -10,53c18,11 11,26 -8,16c-14,-8 -22,-2 -40,29c-18,32 -19,39 -7,44c23,8 18,28 -5,21c-15,-5 -24,2 -39,26c-19,31 -19,34 -3,53c16,18 16,19 -10,12c-21,-5 -28,-2 -33,13c-6,21 -35,49 -35,35zm344,-535c-6,-11 -24,-2 -24,11c0,5 7,7 15,4c8,-4 12,-10 9,-15z"/>
   <path fill="#ffffff" id="svg_153" d="m2085,1356c34,-23 127,-53 205,-66c97,-16 211,-7 311,27c154,51 147,52 -211,53c-276,0 -322,-2 -305,-14z"/>
   <path fill="#ffffff" id="svg_154" d="m2866,1052c-4,-7 -4,-17 0,-24c4,-7 3,-8 -4,-4c-17,10 -15,1 13,-54c24,-47 24,-50 6,-50c-10,0 -29,17 -45,40c-14,22 -29,40 -32,40c-5,0 31,-66 46,-83c4,-4 3,-27 -2,-50c-9,-40 -5,-52 99,-287c108,-246 134,-295 150,-289c52,23 112,66 108,79c-3,8 -56,134 -119,280c-98,229 -116,265 -135,266c-32,2 -41,15 -61,85c-9,36 -20,57 -24,51zm61,-155c1,-1 51,-112 112,-246c84,-185 108,-247 99,-253c-26,-17 -70,-39 -73,-36c-1,2 -49,110 -105,240c-89,207 -101,242 -96,274c7,33 9,35 34,29c15,-4 28,-7 29,-8zm73,-86c-1,-12 -39,64 -39,79c0,8 8,-5 19,-29c11,-24 20,-46 20,-50zm184,-437c4,-9 5,-18 4,-19c-56,-36 -96,-53 -106,-43c-18,18 -15,26 26,52c44,29 67,32 76,10z"/>
   <path fill="#ffffff" id="svg_155" d="m2470,971c-41,-68 -44,-71 -80,-71c-33,0 -41,5 -59,36c-12,20 -24,34 -28,31c-3,-3 5,-22 17,-41c12,-20 19,-40 16,-44c-24,-39 -66,-523 -52,-598c12,-59 90,-82 162,-48c22,10 37,26 41,42c7,30 -14,392 -27,467c-26,140 -26,138 20,215c23,40 40,74 37,77c-3,2 -24,-27 -47,-66zm-40,-116c0,-23 -4,-25 -45,-25c-37,0 -45,3 -45,18c0,27 9,32 52,32c34,0 38,-3 38,-25zm-6,-411c20,-19 20,-24 0,-52c-26,-37 -74,-23 -74,23c0,42 44,59 74,29z"/>
   <path fill="#ffffff" id="svg_156" d="m2613,978c-21,-10 -22,-16 -17,-72c7,-73 91,-457 102,-468c5,-5 23,-5 40,-2c25,5 32,12 32,31c0,35 -88,424 -99,437c-5,6 -12,28 -16,49c-8,40 -9,41 -42,25zm94,-404c16,-76 16,-84 -1,-84c-12,0 -36,86 -36,133c0,40 25,8 37,-49z"/>
   <path fill="#ffffff" id="svg_157" d="m2119,935c-22,-12 -33,-36 -73,-172c-25,-87 -46,-161 -46,-165c0,-5 9,1 20,12c25,25 66,26 72,2c6,-22 -31,-77 -52,-77c-8,0 -18,11 -21,25c-4,16 -7,5 -8,-32c0,-32 3,-58 8,-58c5,0 32,35 60,79c40,63 59,108 96,232c25,84 45,156 45,161c0,13 -73,8 -101,-7z"/>
   <path fill="#ffffff" id="svg_158" d="m3650,914c0,-9 5,-14 12,-12c18,6 21,28 4,28c-9,0 -16,-7 -16,-16z"/>
  </g>
 </g>
</svg>